{"glyphs":{"0":{"ha":863,"x_min":0,"x_max":0,"o":"m 774 464 b 432 946 774 703 721 946 b 90 464 140 946 90 704 b 432 -18 90 224 140 -18 b 774 464 721 -18 774 225 z m 592 464 b 557 204 592 394 586 268 b 432 139 535 153 483 139 b 306 204 381 139 328 154 b 272 464 278 267 272 396 b 306 724 272 532 278 661 b 432 789 328 774 381 789 b 557 724 483 789 535 775 b 592 464 586 660 592 533 z "},"1":{"ha":850,"x_min":0,"x_max":0,"o":"m 554 61 l 554 869 b 499 928 554 904 535 928 b 274 857 432 928 335 885 b 231 808 251 847 231 835 b 242 736 231 785 238 758 b 278 713 244 718 261 713 b 376 751 294 713 360 743 l 376 61 b 450 0 376 7 401 0 l 499 0 b 554 61 540 0 554 22 z "},"2":{"ha":860,"x_min":0,"x_max":0,"o":"m 713 57 b 651 160 713 107 721 160 b 322 150 542 160 432 156 b 639 485 425 244 567 367 b 707 713 681 553 707 632 b 421 946 707 890 579 946 b 208 929 350 946 278 940 b 151 876 178 925 151 913 b 163 803 151 853 158 826 b 207 765 167 778 182 765 b 276 778 229 765 254 774 b 421 790 324 786 372 790 b 522 689 501 790 522 769 b 413 475 522 608 461 535 b 315 368 382 438 347 403 l 183 231 b 100 104 151 196 100 156 b 157 0 100 53 88 0 l 651 0 b 713 57 690 0 713 15 z "},"3":{"ha":860,"x_min":0,"x_max":0,"o":"m 719 281 b 601 501 719 382 697 456 b 682 700 664 554 682 619 b 374 946 682 899 549 946 b 172 924 343 946 194 940 b 151 893 161 915 151 908 b 171 792 151 868 165 818 b 201 775 174 778 190 775 b 265 786 221 775 246 782 b 378 794 303 792 340 794 b 506 689 463 794 506 781 b 336 547 506 557 460 547 l 247 547 b 197 504 218 547 197 536 l 197 439 b 276 397 197 397 246 397 b 443 390 332 397 389 399 b 540 278 514 379 540 351 b 415 140 540 185 514 140 b 189 189 329 140 269 164 b 168 192 182 190 175 192 b 125 156 146 192 131 175 b 103 74 118 132 103 99 b 410 -18 103 4 356 -18 b 719 281 613 -18 719 74 z "},"4":{"ha":846,"x_min":0,"x_max":0,"o":"m 650 228 b 746 322 738 228 746 231 b 650 388 746 393 711 388 l 650 869 b 594 928 650 904 631 928 l 518 928 b 472 899 499 928 483 914 l 92 392 b 74 349 82 379 74 365 b 78 324 74 340 75 332 l 101 249 b 140 228 107 232 125 228 l 481 228 l 481 61 b 553 0 481 7 504 0 b 650 61 608 0 650 -8 z m 481 383 b 258 374 407 381 332 378 l 481 675 z "},"5":{"ha":860,"x_min":0,"x_max":0,"o":"m 724 290 b 550 583 724 411 685 554 b 424 593 510 592 465 593 b 344 590 397 593 371 593 l 363 771 b 649 768 458 769 553 768 b 708 833 697 768 708 790 b 649 928 708 885 715 928 l 264 928 b 204 865 218 928 207 908 l 174 481 l 174 475 b 226 425 172 442 196 425 b 307 433 253 425 281 431 b 399 440 338 438 368 440 b 524 406 433 440 504 443 b 546 294 539 376 546 326 b 417 138 546 206 515 138 b 283 160 372 138 326 147 b 192 186 264 165 207 186 b 146 136 164 186 150 160 b 133 64 142 114 133 88 b 161 26 133 44 146 35 b 418 -18 210 0 361 -18 b 724 290 615 -18 724 94 z "},"6":{"ha":861,"x_min":0,"x_max":0,"o":"m 743 290 b 465 593 743 489 672 593 b 292 571 407 593 349 583 b 325 742 296 618 306 699 b 428 794 344 785 383 794 b 561 789 472 794 517 793 b 643 781 588 788 617 781 b 692 831 675 781 692 799 l 692 875 b 625 938 692 928 674 933 b 447 946 567 943 507 946 b 142 750 300 946 185 903 b 103 339 107 625 103 468 b 215 31 103 224 108 99 b 417 -18 275 -8 347 -18 b 743 290 628 -18 743 72 z m 565 301 b 433 138 565 194 551 138 b 282 303 307 138 282 183 b 286 411 282 339 285 375 b 458 439 339 428 403 439 b 565 301 550 439 565 382 z "},"7":{"ha":860,"x_min":0,"x_max":0,"o":"m 738 872 b 669 928 738 926 719 928 l 210 928 b 151 871 171 928 151 911 b 210 768 151 821 140 768 b 518 775 313 768 415 771 l 233 101 b 211 40 228 88 211 56 b 263 0 211 11 238 0 l 333 0 b 414 88 379 0 399 51 l 732 842 b 738 872 736 850 738 863 z "},"8":{"ha":861,"x_min":0,"x_max":0,"o":"m 750 249 b 589 469 750 369 686 415 b 732 701 681 528 732 589 b 431 946 732 913 621 946 b 131 701 240 946 131 911 b 265 467 131 578 164 535 b 111 249 161 408 111 375 b 431 -18 111 32 236 -18 b 750 249 626 -18 750 28 z m 554 699 b 425 543 554 606 493 585 b 308 699 357 588 308 607 b 415 799 308 797 317 799 l 446 799 b 554 699 542 799 554 799 z m 572 244 b 453 131 572 150 540 131 l 408 131 b 289 244 321 131 289 150 b 432 388 289 319 378 354 b 572 244 492 356 572 324 z "},"9":{"ha":861,"x_min":0,"x_max":0,"o":"m 761 508 b 436 946 761 758 728 946 b 124 635 225 946 124 846 b 404 356 124 450 219 356 b 576 382 463 356 519 365 b 421 135 572 257 588 135 b 263 154 368 135 313 139 b 183 179 246 160 197 179 b 146 149 161 179 154 168 b 122 67 136 126 122 90 b 156 21 122 40 133 31 b 397 -18 208 -4 338 -18 b 761 508 754 -18 761 224 z m 578 543 b 411 513 525 524 468 513 b 301 638 317 513 301 547 b 431 796 301 742 317 796 b 571 665 528 796 560 757 b 578 543 576 625 578 583 z "}," ":{"ha":313,"x_min":0,"x_max":0,"o":""},"!":{"ha":418,"x_min":0,"x_max":0,"o":"m 299 868 b 243 928 300 903 279 928 l 182 928 b 121 871 142 928 121 914 l 121 868 l 132 347 b 194 285 133 296 142 285 l 232 285 b 288 347 274 285 286 308 z m 211 -37 b 233 -28 219 -37 228 -33 l 329 67 b 339 89 335 72 339 81 b 329 113 339 99 335 107 l 233 208 b 211 218 228 214 219 218 b 190 208 204 218 196 214 l 94 113 b 85 89 89 107 85 99 b 94 67 85 81 89 72 l 190 -28 b 213 -37 196 -33 204 -37 z "},"\"":{"ha":519,"x_min":0,"x_max":0,"o":"m 388 793 b 443 846 426 793 440 808 l 457 1001 l 457 1006 b 400 1054 458 1038 429 1054 l 353 1054 b 292 1010 321 1054 289 1047 l 292 1001 l 306 846 b 365 793 310 806 326 793 z m 157 793 b 213 846 196 793 210 808 l 226 1001 l 226 1006 b 171 1054 228 1038 200 1054 l 122 1054 b 61 1010 90 1054 58 1047 l 61 1001 l 75 846 b 136 793 79 806 97 793 z "},"#":{"ha":824,"x_min":0,"x_max":0,"o":"m 781 658 l 688 658 l 740 876 l 597 876 l 547 658 l 378 658 l 428 876 l 285 876 l 232 658 l 140 658 l 110 533 l 203 533 l 168 388 l 75 388 l 44 263 l 139 263 l 85 43 l 231 43 l 283 263 l 451 263 l 399 43 l 542 43 l 593 263 l 683 263 l 714 388 l 624 388 l 657 533 l 750 533 z m 515 533 l 482 388 l 314 388 l 347 533 z "},"$":{"ha":817,"x_min":0,"x_max":0,"o":"m 675 286 b 661 394 675 321 674 361 b 424 549 629 472 494 519 l 424 778 l 453 778 b 603 769 503 778 553 769 b 657 836 651 769 657 792 l 657 882 b 583 931 657 925 617 926 b 424 938 531 936 476 938 l 424 1025 b 393 1063 424 1044 415 1063 b 344 1025 358 1063 344 1067 l 344 938 b 233 915 306 936 269 928 b 96 689 128 876 96 796 b 269 433 96 535 129 494 b 344 400 294 422 319 411 l 344 149 b 149 160 279 150 214 160 b 96 93 100 160 96 136 l 96 46 b 168 -3 96 4 135 1 b 344 -12 226 -10 286 -11 l 344 -97 b 371 -137 344 -124 340 -137 l 393 -137 b 424 -97 421 -137 424 -122 l 424 -11 b 649 92 506 -6 607 11 b 675 286 674 140 675 231 z m 344 581 b 268 676 288 604 268 611 l 268 701 b 344 778 268 761 283 778 z m 503 236 b 424 150 503 172 488 153 l 424 367 b 503 263 490 339 503 338 z "},"%":{"ha":1178,"x_min":0,"x_max":0,"o":"m 1136 228 b 926 472 1136 371 1085 472 b 719 226 769 472 719 368 b 925 -18 719 85 768 -18 b 1136 228 1085 -18 1136 83 z m 906 921 b 892 950 906 932 901 944 b 822 985 872 961 843 985 b 785 961 806 985 793 975 l 278 28 b 274 8 275 22 274 15 b 286 -21 274 -3 276 -15 l 340 -53 b 356 -56 344 -56 350 -56 b 394 -32 372 -56 386 -47 l 900 901 b 906 921 903 907 906 914 z m 446 701 b 236 946 446 844 394 946 b 31 701 79 946 31 843 b 235 456 31 561 76 456 b 446 701 394 456 446 557 z m 1006 226 b 989 113 1006 196 1003 140 b 928 90 978 92 949 90 b 865 113 907 90 876 92 b 850 226 851 139 850 197 b 865 340 850 256 851 314 b 928 363 876 361 907 363 b 989 340 950 363 976 361 b 1006 226 1004 314 1006 257 z m 317 700 b 299 588 317 669 314 615 b 238 565 288 567 258 565 b 176 588 217 565 188 565 b 160 701 163 615 160 671 b 176 815 160 732 163 788 b 238 838 188 838 217 838 b 299 815 260 838 286 836 b 317 700 314 788 317 731 z "},"&":{"ha":976,"x_min":0,"x_max":0,"o":"m 896 74 b 775 193 896 99 797 174 b 829 433 808 258 829 360 b 786 489 829 469 826 489 l 738 489 b 690 450 707 489 696 481 b 686 410 688 438 688 424 b 664 294 681 371 675 332 b 496 472 604 349 547 410 b 696 731 599 536 696 597 b 415 944 696 917 575 944 b 157 735 274 944 157 893 b 263 504 157 640 201 571 b 96 229 139 440 96 369 b 438 -22 96 10 257 -22 b 699 68 532 -22 633 -7 b 811 -18 715 51 790 -18 b 883 44 833 -18 869 28 b 896 74 892 54 896 61 z m 529 731 b 404 575 529 643 476 610 b 328 722 367 611 328 668 b 415 801 328 789 351 801 b 529 731 474 801 529 804 z m 585 169 b 438 125 549 126 489 125 b 271 239 335 125 271 115 b 367 393 271 333 289 347 b 585 169 436 317 507 239 z "},"’":{"ha":361,"x_min":0,"x_max":0,"o":"m 315 926 b 260 967 315 956 285 967 l 207 967 b 142 921 169 967 158 951 l 71 789 b 56 743 64 776 56 757 b 149 685 56 714 124 685 b 204 719 175 685 190 697 b 315 926 226 756 315 896 z "},"(":{"ha":435,"x_min":0,"x_max":0,"o":"m 444 -189 l 444 -26 b 285 106 340 -26 308 8 b 257 464 257 222 257 344 b 285 822 257 583 257 706 b 444 954 308 919 340 954 l 444 1117 b 168 986 329 1114 228 1096 b 92 463 97 854 92 613 b 168 -61 92 313 97 71 b 444 -189 228 -171 331 -186 z "},")":{"ha":436,"x_min":0,"x_max":0,"o":"m 344 463 b 267 986 344 613 338 854 b -10 1117 207 1096 106 1114 l -10 954 b 151 822 93 954 128 919 b 179 464 179 706 179 583 b 151 106 179 344 179 222 b -10 -26 128 8 93 -26 l -10 -189 b 267 -61 104 -186 207 -171 b 344 463 338 71 344 313 z "},"*":{"ha":529,"x_min":0,"x_max":0,"o":"m 453 810 b 447 843 453 821 450 832 b 397 906 439 868 431 906 b 328 875 376 906 346 885 b 332 933 329 894 332 914 b 282 985 332 965 315 985 b 199 931 240 985 199 983 b 206 869 199 910 203 889 b 133 907 189 881 156 907 b 83 843 100 907 92 868 b 78 811 81 833 78 822 b 164 746 78 763 128 757 l 119 697 b 106 661 111 688 106 674 b 186 583 106 628 156 583 b 231 617 207 583 221 600 l 265 681 l 300 617 b 344 583 310 600 324 583 b 425 660 375 583 425 628 b 410 697 425 674 419 688 l 364 743 b 453 810 400 756 453 763 z "},"+":{"ha":771,"x_min":0,"x_max":0,"o":"m 704 289 l 704 432 l 461 432 l 461 665 l 308 665 l 308 432 l 65 432 l 65 289 l 308 289 l 308 54 l 461 54 l 461 289 z "},",":{"ha":414,"x_min":0,"x_max":0,"o":"m 342 97 b 332 125 342 108 340 118 l 229 222 b 206 232 222 228 214 232 b 183 222 197 232 189 229 l 90 118 b 81 93 85 111 81 103 b 90 71 81 85 83 76 l 174 -7 b 129 -79 161 -33 146 -56 b 40 -207 117 -96 40 -190 b 89 -253 40 -228 74 -243 b 115 -262 97 -258 104 -262 b 153 -235 132 -262 144 -247 b 342 97 193 -176 342 39 z "},"-":{"ha":646,"x_min":0,"x_max":0,"o":"m 579 354 l 579 408 b 515 446 579 443 542 446 l 128 446 b 67 408 104 446 67 439 l 67 344 b 128 303 67 306 96 303 l 515 303 b 579 354 558 303 579 307 z "},".":{"ha":418,"x_min":0,"x_max":0,"o":"m 213 -37 b 233 -28 219 -37 228 -33 l 329 67 b 339 89 335 72 339 81 b 329 113 339 99 335 107 l 233 208 b 211 218 228 214 219 218 b 190 208 204 218 196 214 l 94 113 b 85 89 89 107 85 99 b 94 67 85 81 89 72 l 190 -28 b 213 -37 196 -33 204 -37 z "},"/":{"ha":507,"x_min":0,"x_max":0,"o":"m 128 -42 b 169 -7 149 -42 163 -25 l 547 889 b 556 924 551 900 556 911 b 528 960 556 942 543 953 b 453 990 510 969 476 990 b 413 957 432 990 419 975 l 33 61 b 21 21 28 50 21 33 b 57 -14 21 1 42 -7 b 128 -42 76 -22 106 -42 z "},":":{"ha":403,"x_min":0,"x_max":0,"o":"m 204 339 b 225 349 211 339 219 343 l 321 444 b 331 468 326 450 331 458 b 321 490 331 476 326 485 l 225 586 b 203 596 219 592 211 596 b 182 586 196 596 188 592 l 86 490 b 76 468 81 485 76 476 b 86 444 76 458 81 450 l 182 349 b 204 339 188 343 196 339 z m 204 -37 b 225 -28 211 -37 219 -33 l 321 67 b 331 89 326 72 331 81 b 321 113 331 99 326 107 l 225 208 b 203 218 219 214 211 218 b 182 208 196 218 188 214 l 86 113 b 76 89 81 107 76 99 b 86 67 76 81 81 72 l 182 -28 b 204 -37 188 -33 196 -37 z "},";":{"ha":414,"x_min":0,"x_max":0,"o":"m 211 336 b 232 346 218 336 226 340 l 328 442 b 338 465 333 447 338 456 b 328 488 338 474 333 482 l 232 583 b 210 593 226 589 218 593 b 189 583 203 593 194 589 l 93 488 b 83 465 88 482 83 474 b 93 442 83 456 88 447 l 189 346 b 211 336 194 340 203 336 z m 342 97 b 332 125 342 108 340 118 l 229 222 b 206 232 222 228 214 232 b 183 222 197 232 189 229 l 90 118 b 81 93 85 111 81 103 b 90 71 81 85 83 76 l 174 -7 b 129 -79 161 -33 146 -56 b 40 -207 117 -96 40 -190 b 89 -253 40 -228 74 -243 b 115 -262 97 -258 104 -262 b 153 -235 132 -262 144 -247 b 342 97 193 -176 342 39 z "},"<":{"ha":969,"x_min":0,"x_max":0,"o":"m 878 74 l 878 238 l 335 446 l 878 654 l 878 818 l 69 501 l 69 390 z "},"=":{"ha":697,"x_min":0,"x_max":0,"o":"m 631 418 l 631 544 l 65 544 l 65 418 z m 631 179 l 631 304 l 65 304 l 65 179 z "},">":{"ha":968,"x_min":0,"x_max":0,"o":"m 899 390 l 899 501 l 92 818 l 92 654 l 635 446 l 92 238 l 92 74 z "},"?":{"ha":699,"x_min":0,"x_max":0,"o":"m 611 724 b 342 947 611 897 499 947 b 131 931 271 947 200 942 b 82 889 107 926 82 918 b 97 794 82 863 93 822 b 131 771 100 778 115 771 b 161 775 140 771 151 774 b 335 797 218 786 276 797 b 429 715 396 797 429 781 b 206 376 429 581 206 519 b 258 285 206 325 192 285 l 308 285 b 358 324 340 285 358 288 b 403 425 358 374 369 390 b 611 724 490 515 611 582 z m 293 -37 b 315 -28 301 -37 310 -33 l 411 67 b 421 89 417 72 421 81 b 411 113 421 99 417 107 l 315 208 b 293 218 310 214 301 218 b 272 208 286 218 278 214 l 176 113 b 167 89 171 107 167 99 b 176 67 167 81 171 72 l 272 -28 b 294 -37 278 -33 286 -37 z "},"@":{"ha":1463,"x_min":0,"x_max":0,"o":"m 1349 314 b 756 958 1349 722 1186 958 b 114 325 326 958 114 757 b 679 -301 114 -50 279 -301 b 1004 -249 772 -301 918 -282 b 1047 -206 1025 -240 1047 -232 b 1019 -126 1047 -186 1028 -144 b 989 -106 1014 -112 1004 -106 b 967 -111 982 -106 974 -108 b 699 -161 878 -140 793 -161 b 293 306 389 -161 293 21 b 761 821 293 667 375 821 b 1172 286 1131 821 1172 600 b 1082 113 1172 218 1174 113 b 1004 288 993 113 1004 226 l 1004 386 b 953 604 1004 460 1007 547 b 753 667 904 656 821 667 b 526 640 713 667 560 653 b 486 583 494 628 486 618 b 529 501 486 549 478 501 b 556 506 538 501 547 504 b 760 535 622 519 692 535 b 831 406 835 535 831 461 b 654 394 772 406 713 401 b 428 183 521 379 428 333 b 626 -18 428 51 493 -18 b 869 72 725 -18 792 13 b 1074 -29 914 11 999 -29 b 1349 314 1281 -29 1349 131 z m 838 176 b 646 108 781 138 715 108 b 594 199 601 108 594 165 b 681 283 594 260 622 278 b 763 288 708 288 735 288 b 831 285 785 288 808 286 b 838 176 831 250 831 210 z "},"A":{"ha":872,"x_min":0,"x_max":0,"o":"m 847 42 b 842 63 847 49 844 56 l 542 872 b 460 933 525 917 508 933 b 321 871 386 933 349 947 l 36 76 b 25 33 32 65 25 44 b 79 0 25 1 53 0 b 214 58 151 0 189 -17 l 269 222 b 594 222 378 219 486 219 l 656 49 b 721 0 668 15 683 0 l 797 0 b 847 42 825 0 847 11 z m 542 365 l 319 365 l 431 693 z "},"B":{"ha":831,"x_min":0,"x_max":0,"o":"m 749 276 b 626 503 749 376 726 461 b 703 686 686 551 703 611 b 596 903 703 772 678 863 b 364 928 532 935 433 928 l 183 928 b 117 871 142 928 117 918 l 117 61 b 183 0 117 13 138 0 l 450 0 b 683 71 532 0 624 6 b 749 276 735 128 749 203 z m 525 671 b 376 531 525 549 490 531 l 303 531 l 303 772 b 407 775 338 774 372 775 b 525 671 494 775 525 767 z m 564 276 b 499 161 564 226 556 174 b 403 153 468 154 435 153 b 303 156 369 153 336 154 l 303 386 l 385 386 b 511 376 426 386 471 386 b 564 276 560 364 564 321 z "},"C":{"ha":785,"x_min":0,"x_max":0,"o":"m 718 38 b 665 150 718 90 733 150 b 515 143 615 150 565 143 b 408 150 481 143 443 143 b 279 451 271 176 279 343 b 364 757 279 538 267 715 b 515 776 401 774 474 776 b 665 769 565 776 615 769 b 718 836 714 769 718 793 l 718 882 b 646 931 718 925 681 928 b 488 938 593 936 540 938 b 269 906 417 938 336 933 b 88 453 99 833 88 611 b 488 -18 88 146 153 -18 b 646 -11 540 -18 593 -17 b 718 38 681 -8 718 -6 z "},"D":{"ha":904,"x_min":0,"x_max":0,"o":"m 819 454 b 636 899 819 613 810 831 b 418 928 569 925 489 928 l 176 928 b 108 871 136 928 108 918 l 108 61 b 176 0 108 13 131 0 l 418 0 b 819 454 749 0 819 151 z m 629 451 b 624 328 629 410 629 368 b 492 168 613 239 585 185 b 392 161 458 163 425 161 b 294 165 358 161 326 163 l 294 763 b 392 767 326 765 358 767 b 542 747 433 767 504 764 b 629 451 640 704 629 540 z "},"E":{"ha":747,"x_min":0,"x_max":0,"o":"m 665 57 b 606 160 665 107 675 160 b 294 156 501 160 399 158 l 294 414 b 575 410 388 413 482 410 b 635 475 622 410 635 432 b 575 560 635 522 636 560 b 294 556 482 560 388 557 l 294 772 b 606 768 399 769 501 768 b 665 833 653 768 665 790 b 606 928 665 886 672 928 l 176 928 b 108 871 135 928 108 918 l 108 61 b 176 0 108 13 131 0 l 606 0 b 665 57 644 0 665 15 z "},"F":{"ha":694,"x_min":0,"x_max":0,"o":"m 639 833 b 579 928 639 885 646 928 l 176 928 b 108 871 135 928 108 918 l 108 61 b 176 0 108 13 131 0 l 236 0 b 294 61 278 0 294 21 l 294 414 b 553 410 381 413 467 410 b 611 475 600 410 611 432 b 553 560 611 521 614 560 b 294 557 467 560 381 558 l 294 772 b 579 768 389 769 485 768 b 639 833 625 768 639 792 z "},"G":{"ha":860,"x_min":0,"x_max":0,"o":"m 767 81 l 767 501 b 707 560 767 542 747 560 l 450 560 b 390 494 403 560 390 538 b 450 410 390 447 389 410 l 581 410 l 581 151 b 515 143 560 147 538 143 b 408 150 481 143 443 143 b 279 451 271 176 279 343 b 364 757 279 538 267 715 b 515 776 401 774 474 776 b 711 765 581 776 646 765 b 764 832 760 765 764 789 l 764 879 b 693 928 764 921 726 924 b 488 938 626 938 556 938 b 269 906 417 938 336 933 b 88 453 99 833 88 611 b 488 -18 88 146 153 -18 b 707 8 554 -18 643 -12 b 767 81 747 21 767 36 z "},"H":{"ha":925,"x_min":0,"x_max":0,"o":"m 815 61 l 815 871 b 756 928 815 911 794 928 l 697 928 b 631 871 656 928 631 918 l 631 569 b 294 569 519 572 406 572 l 294 871 b 236 928 294 911 276 928 l 176 928 b 108 871 135 928 108 918 l 108 61 b 176 0 108 13 131 0 b 294 61 232 0 294 -14 l 294 421 b 631 421 406 418 519 418 l 631 61 b 697 0 631 13 651 0 b 815 61 751 0 815 -14 z "},"I":{"ha":415,"x_min":0,"x_max":0,"o":"m 301 61 l 301 871 b 242 928 301 911 281 928 l 182 928 b 115 871 140 928 115 918 l 115 61 b 182 0 115 13 136 0 l 242 0 b 301 61 283 0 301 21 z "},"J":{"ha":497,"x_min":0,"x_max":0,"o":"m 410 440 l 410 871 b 351 928 410 911 392 928 l 121 928 b 61 871 81 928 61 913 b 121 768 61 821 51 768 b 224 771 156 768 189 769 l 224 414 b 206 193 224 367 226 238 b 108 153 188 154 146 153 b 29 158 82 153 56 158 b -18 111 3 158 -18 138 b -6 14 -18 83 -24 38 b 94 -10 10 -6 72 -10 b 406 249 279 -10 392 54 b 410 440 410 311 410 376 z "},"K":{"ha":840,"x_min":0,"x_max":0,"o":"m 811 40 b 789 88 811 58 801 75 l 419 464 l 765 853 b 781 889 774 863 781 876 b 729 928 781 918 754 928 l 658 928 b 581 890 621 928 604 918 l 294 554 l 294 871 b 176 928 294 943 229 928 b 108 871 135 928 108 918 l 108 61 b 176 0 108 13 131 0 b 294 61 233 0 294 -14 l 294 344 l 582 36 b 664 0 607 8 626 0 l 760 0 b 811 40 786 0 811 11 z "},"L":{"ha":650,"x_min":0,"x_max":0,"o":"m 625 57 b 565 160 625 107 635 160 b 294 157 475 160 385 158 l 294 871 b 236 928 294 911 276 928 l 176 928 b 108 871 135 928 108 918 l 108 61 b 176 0 108 13 131 0 l 565 0 b 625 57 604 0 625 15 z "},"M":{"ha":1128,"x_min":0,"x_max":0,"o":"m 1044 54 b 1044 64 1044 57 1044 61 l 974 872 b 906 928 969 917 946 928 l 829 928 b 758 885 793 928 772 918 b 689 700 732 825 711 761 b 564 351 647 583 606 467 b 439 700 522 467 481 583 b 369 885 417 761 396 825 b 299 928 356 918 335 928 l 222 928 b 154 872 182 928 158 917 l 83 64 b 83 54 83 61 83 57 b 151 0 83 10 113 0 b 269 60 208 0 265 -14 l 306 625 b 340 518 318 590 328 553 b 471 158 383 399 422 276 b 546 104 486 121 503 104 b 658 158 604 104 633 99 b 786 518 706 271 746 401 b 822 625 799 554 810 590 l 858 60 b 918 0 861 21 876 0 b 1044 54 964 0 1044 -15 z "},"N":{"ha":961,"x_min":0,"x_max":0,"o":"m 857 61 l 857 871 b 799 928 857 911 839 928 b 674 871 749 928 674 943 l 674 331 b 417 703 588 454 503 579 b 322 840 386 749 354 794 b 279 899 308 860 294 881 b 208 928 257 926 243 928 b 104 871 161 928 104 938 l 104 61 b 171 0 104 13 125 0 b 288 61 224 0 288 -12 l 288 593 b 539 225 371 471 454 347 b 636 88 571 179 603 133 b 678 29 650 68 663 47 b 756 0 701 0 721 0 b 857 61 807 0 857 -10 z "},"O":{"ha":965,"x_min":0,"x_max":0,"o":"m 879 463 b 483 954 879 733 790 954 b 88 463 174 954 88 735 b 483 -29 88 190 174 -29 b 879 463 790 -29 879 192 z m 686 463 b 656 224 686 397 683 282 b 483 133 624 154 556 133 b 311 224 411 133 343 154 b 281 463 283 282 281 397 b 311 703 281 528 283 644 b 483 792 344 772 411 792 b 656 703 556 792 622 772 b 686 463 683 644 686 528 z "},"P":{"ha":811,"x_min":0,"x_max":0,"o":"m 743 603 b 671 863 743 688 733 799 b 433 928 601 933 526 928 l 176 928 b 108 871 135 928 108 918 l 108 61 b 176 0 108 13 131 0 b 294 61 231 0 294 -15 l 294 299 b 743 603 560 299 743 272 z m 558 614 b 542 485 558 583 560 508 b 451 458 522 460 479 458 l 294 458 l 294 767 b 411 769 333 768 372 769 b 521 758 438 769 499 769 b 558 614 557 739 558 650 z "},"Q":{"ha":965,"x_min":0,"x_max":0,"o":"m 879 458 b 483 954 879 731 794 954 b 88 458 171 954 88 732 b 182 90 88 328 97 197 b 382 -29 233 25 300 -14 b 688 -242 410 -199 532 -242 b 801 -176 742 -242 801 -244 b 756 -79 801 -136 811 -79 b 576 -29 704 -79 594 -96 b 783 90 663 -15 729 22 b 879 458 868 197 879 328 z m 686 458 b 656 218 686 392 683 278 b 483 126 624 147 556 126 b 311 218 411 126 343 147 b 281 458 283 278 281 392 b 311 700 281 525 283 640 b 483 792 343 769 411 792 b 656 700 556 792 624 769 b 686 458 683 640 686 525 z "},"R":{"ha":854,"x_min":0,"x_max":0,"o":"m 790 38 b 771 86 790 56 782 72 l 558 344 b 743 603 700 364 743 472 b 671 863 743 688 733 799 b 433 928 601 933 526 928 l 176 928 b 108 871 135 928 108 918 l 108 61 b 176 0 108 13 131 0 b 294 61 232 0 294 -14 l 294 338 l 338 338 l 574 38 b 658 0 599 7 619 0 l 742 0 b 790 38 767 0 790 10 z m 558 614 b 451 496 558 526 546 496 l 294 496 l 294 767 b 414 769 335 768 374 769 b 521 758 440 769 499 769 b 558 614 557 739 558 649 z "},"S":{"ha":751,"x_min":0,"x_max":0,"o":"m 669 286 b 567 485 669 385 657 436 b 435 546 525 508 479 526 b 321 594 397 563 358 578 b 272 676 274 617 272 626 b 347 778 272 742 268 778 b 507 775 400 778 453 778 b 597 769 536 774 567 769 b 651 836 646 769 651 792 l 651 882 b 578 931 651 925 611 928 b 421 938 526 935 474 938 b 228 915 358 938 288 935 b 90 689 113 876 90 801 b 264 433 90 525 117 497 b 439 360 322 408 381 385 b 472 340 450 354 464 350 b 488 239 492 321 488 264 b 376 149 488 149 460 149 b 132 160 294 149 214 160 b 79 93 83 160 79 136 l 79 46 b 151 -3 79 4 118 1 b 356 -12 218 -11 288 -12 b 643 92 453 -12 592 -7 b 669 286 668 140 669 231 z "},"T":{"ha":793,"x_min":0,"x_max":0,"o":"m 754 833 b 694 928 754 885 761 928 l 99 928 b 40 871 60 928 40 911 b 99 768 40 821 29 768 b 304 771 167 768 236 769 l 304 61 b 371 0 304 13 325 0 b 490 61 425 0 490 -14 l 490 771 b 694 768 558 769 626 768 b 754 833 742 768 754 790 z "},"U":{"ha":944,"x_min":0,"x_max":0,"o":"m 850 553 l 850 871 b 793 928 850 910 835 928 l 733 928 b 664 871 692 928 664 919 l 664 461 b 635 210 664 389 668 276 b 472 142 603 144 536 142 b 311 210 407 142 343 144 b 282 461 278 276 282 389 l 282 871 b 221 928 282 911 260 928 l 163 928 b 96 871 121 928 96 918 l 96 531 b 200 53 96 386 85 160 b 472 -21 271 -12 381 -21 b 746 53 563 -21 675 -12 b 850 553 863 160 850 408 z "},"V":{"ha":925,"x_min":0,"x_max":0,"o":"m 876 894 b 824 928 876 928 851 928 l 756 928 b 683 869 710 928 697 910 l 469 247 l 250 879 b 183 928 238 914 221 928 l 99 928 b 49 886 71 928 49 917 b 54 865 49 879 51 872 l 353 60 b 435 -3 369 15 386 -3 b 582 60 508 -3 554 -18 l 867 851 b 876 894 871 864 876 882 z "},"W":{"ha":1193,"x_min":0,"x_max":0,"o":"m 1140 882 b 1071 928 1140 922 1103 928 l 1001 928 b 943 871 960 928 950 907 l 824 254 b 740 551 796 353 768 453 b 694 703 725 601 713 654 b 629 747 683 733 663 747 b 501 703 578 747 524 761 b 456 549 482 653 469 599 b 372 249 428 449 400 349 l 253 871 b 193 928 246 907 235 928 l 124 928 b 54 879 88 928 54 922 b 57 861 54 874 56 867 l 242 50 b 308 -3 251 10 267 -3 l 397 -3 b 467 50 438 -3 454 14 b 597 486 517 193 554 340 b 729 50 640 340 679 193 b 796 -3 742 14 756 -3 l 886 -3 b 954 50 926 -3 944 8 l 1138 861 b 1140 882 1139 868 1140 875 z "},"X":{"ha":906,"x_min":0,"x_max":0,"o":"m 832 39 b 811 92 832 58 821 76 l 557 471 l 806 825 b 832 888 818 842 832 867 b 781 928 832 918 807 928 b 650 892 728 928 682 940 l 461 614 l 283 890 b 210 928 267 917 240 928 l 133 928 b 78 883 106 928 78 915 b 94 840 78 868 86 853 l 351 457 l 94 92 b 74 39 85 78 74 57 b 119 0 74 11 94 0 l 189 0 b 264 44 229 0 242 13 l 447 313 l 619 44 b 700 0 642 10 658 0 l 786 0 b 832 39 811 0 832 11 z "},"Y":{"ha":854,"x_min":0,"x_max":0,"o":"m 807 882 b 754 928 807 914 783 928 b 624 889 701 928 653 942 l 432 547 l 244 888 b 175 928 228 918 211 928 l 100 928 b 46 883 72 928 46 914 b 60 843 46 869 53 856 l 338 349 l 338 61 b 404 0 338 13 358 0 b 524 61 460 0 524 -14 l 524 360 l 788 828 b 807 882 796 843 807 865 z "},"Z":{"ha":800,"x_min":0,"x_max":0,"o":"m 740 892 b 696 928 740 918 719 928 l 149 928 b 89 871 110 928 89 913 b 149 768 89 821 79 768 b 479 774 258 768 369 771 l 82 119 b 58 53 69 100 58 76 b 114 0 58 19 82 0 l 672 0 b 731 57 711 0 731 17 b 672 160 731 107 742 160 b 303 147 549 160 426 153 l 719 832 b 740 892 729 849 740 872 z "},"[":{"ha":449,"x_min":0,"x_max":0,"o":"m 504 -132 b 444 -39 504 -83 510 -39 b 251 -46 381 -39 315 -43 l 251 974 b 444 967 315 971 381 967 b 504 1032 490 967 504 989 b 444 1118 504 1081 506 1118 l 153 1118 b 92 1058 110 1118 92 1103 l 92 -128 b 165 -190 92 -182 117 -190 l 444 -190 b 504 -132 483 -190 504 -172 z "},"\\":{"ha":547,"x_min":0,"x_max":0,"o":"m 501 26 b 493 61 501 38 497 51 l 115 957 b 72 990 107 976 94 990 b 44 983 63 990 53 988 b -28 919 15 969 -28 960 b -22 893 -28 911 -26 901 l 358 -7 b 401 -43 367 -25 379 -43 b 460 -19 419 -43 444 -26 b 501 26 479 -10 501 1 z "},"]":{"ha":449,"x_min":0,"x_max":0,"o":"m 357 -128 l 357 1058 b 296 1118 357 1103 339 1118 l 6 1118 b -54 1060 -33 1118 -54 1100 b 6 967 -54 1011 -60 967 b 199 974 69 967 135 971 l 199 -46 b 6 -39 135 -43 69 -39 b -54 -104 -40 -39 -54 -61 b 6 -190 -54 -153 -56 -190 l 283 -190 b 357 -128 332 -190 357 -182 z "},"^":{"ha":697,"x_min":0,"x_max":0,"o":"m 657 503 l 408 957 l 290 957 l 40 503 l 228 503 l 349 731 l 469 503 z "},"_":{"ha":513,"x_min":0,"x_max":0,"o":"m 513 -264 l 513 -218 b 449 -181 513 -183 475 -181 l 61 -181 b 0 -218 38 -181 0 -187 l 0 -274 b 61 -315 0 -312 29 -315 l 449 -315 b 513 -264 492 -315 513 -311 z "},"‘":{"ha":361,"x_min":0,"x_max":0,"o":"m 307 743 b 292 789 307 757 299 776 l 221 921 b 156 967 204 951 193 967 l 103 967 b 46 926 78 967 46 956 b 158 719 46 903 139 750 b 214 685 172 697 188 685 b 307 743 239 685 307 714 z "},"a":{"ha":736,"x_min":0,"x_max":0,"o":"m 644 60 l 644 397 b 592 622 644 475 647 561 b 393 686 544 675 460 686 b 165 660 326 686 229 678 b 126 601 135 650 126 632 b 167 518 126 567 118 518 b 200 522 178 518 189 519 b 400 551 264 538 333 551 b 469 418 478 551 469 474 b 293 407 410 419 351 414 b 67 189 157 392 67 340 b 265 -18 67 56 129 -18 b 471 50 343 -18 406 10 b 511 0 471 21 479 0 l 589 0 b 644 60 631 0 644 19 z m 471 181 b 285 111 415 140 354 111 b 233 204 239 111 233 171 b 315 292 233 264 257 283 b 403 296 344 296 374 296 b 471 293 425 296 449 294 z "},"b":{"ha":772,"x_min":0,"x_max":0,"o":"m 694 343 b 444 686 694 529 663 686 b 274 672 388 686 331 681 l 274 896 b 219 956 274 931 257 956 l 157 956 b 96 896 114 956 96 940 l 96 61 b 163 -1 96 17 125 6 b 385 -18 235 -14 311 -18 b 694 343 633 -18 694 114 z m 514 346 b 499 186 514 301 511 228 b 388 128 483 136 433 128 b 274 140 350 128 311 135 l 274 521 b 417 539 319 531 369 539 b 501 483 467 539 489 535 b 514 346 513 439 514 392 z "},"c":{"ha":664,"x_min":0,"x_max":0,"o":"m 589 39 b 572 133 589 56 583 122 b 539 147 561 144 554 147 b 485 142 521 147 503 144 b 353 131 440 136 397 131 b 265 200 293 131 271 138 b 260 333 261 244 260 289 b 271 472 260 379 261 428 b 353 538 283 526 294 538 b 483 526 396 538 440 532 b 539 521 501 524 521 521 b 589 629 589 521 589 594 l 589 632 b 513 679 589 678 554 675 b 394 686 474 683 433 686 b 78 333 124 686 78 592 b 394 -18 78 75 124 -18 b 513 -12 433 -18 474 -17 b 589 39 556 -7 589 -10 z "},"d":{"ha":775,"x_min":0,"x_max":0,"o":"m 683 63 l 683 896 b 628 956 683 931 664 956 l 567 956 b 506 896 524 956 506 940 l 506 674 b 375 685 463 681 418 685 b 78 318 144 685 78 524 b 329 -18 78 151 135 -18 b 513 32 394 -18 454 3 b 564 0 522 10 540 0 l 628 0 b 683 63 671 0 683 24 z m 506 192 b 358 128 468 160 410 128 b 257 301 268 128 257 233 b 314 526 257 354 258 494 b 369 538 332 538 349 538 b 506 519 415 538 461 531 z "},"e":{"ha":728,"x_min":0,"x_max":0,"o":"m 650 361 b 374 686 650 568 603 686 b 78 329 122 686 78 553 b 381 -18 78 100 131 -18 b 590 0 449 -18 524 -14 b 640 61 629 8 640 22 b 600 150 640 88 639 150 b 551 140 583 150 568 144 b 382 118 496 128 439 118 b 253 257 276 118 251 156 l 253 276 l 592 276 b 650 361 654 276 650 307 z m 481 399 l 253 399 b 374 547 253 499 260 547 b 481 425 468 547 481 511 z "},"f":{"ha":531,"x_min":0,"x_max":0,"o":"m 519 901 l 519 911 b 513 940 519 921 518 932 b 397 967 494 968 425 967 b 158 885 308 967 215 963 b 122 721 124 836 122 779 l 122 665 b 47 626 86 665 47 675 l 47 567 b 81 518 47 542 50 518 l 122 518 l 122 54 b 164 0 122 22 126 0 l 251 0 b 300 63 294 0 300 26 l 300 518 l 435 518 b 485 571 475 518 485 531 l 485 626 b 439 665 485 660 469 665 l 300 665 b 310 804 300 688 296 783 b 360 818 319 819 344 818 b 426 814 382 818 404 817 b 478 806 444 811 461 806 b 519 901 519 806 519 872 z "},"g":{"ha":764,"x_min":0,"x_max":0,"o":"m 672 -64 l 672 618 b 617 681 672 661 661 676 b 426 686 554 686 489 686 b 151 599 319 686 225 685 b 76 315 89 525 76 408 b 333 -18 76 128 118 -18 b 494 0 388 -18 442 -10 l 494 -7 b 397 -156 494 -90 501 -156 b 167 -128 319 -156 242 -146 b 132 -121 156 -125 143 -121 b 86 -211 89 -121 86 -181 b 128 -275 86 -243 96 -265 b 388 -301 193 -296 318 -301 b 643 -197 481 -301 588 -279 b 672 -64 672 -153 672 -115 z m 494 144 b 351 121 449 131 399 121 b 265 213 282 121 274 149 b 257 322 260 249 257 286 b 283 496 257 369 263 453 b 385 539 304 539 342 539 b 494 536 421 539 458 538 z "},"h":{"ha":729,"x_min":0,"x_max":0,"o":"m 656 63 l 656 489 b 442 686 656 622 571 686 b 254 639 376 686 313 667 l 254 896 b 200 956 254 931 236 956 l 138 956 b 76 896 94 956 76 940 l 76 56 b 126 0 76 21 89 0 l 200 0 b 254 63 243 0 254 24 l 254 475 b 424 539 304 510 361 539 b 468 528 438 539 458 539 b 478 418 481 514 478 438 l 478 63 b 528 0 478 26 488 0 l 601 0 b 656 63 644 0 656 24 z "},"i":{"ha":383,"x_min":0,"x_max":0,"o":"m 282 826 l 282 875 b 226 936 282 910 263 936 l 161 936 b 100 875 118 936 100 919 l 100 826 b 174 764 100 771 124 764 l 226 764 b 282 826 269 764 282 788 z m 282 63 l 282 604 b 226 665 282 639 263 665 l 161 665 b 100 604 118 665 100 649 l 100 63 b 174 0 100 7 124 0 l 226 0 b 282 63 269 0 282 24 z "},"j":{"ha":381,"x_min":0,"x_max":0,"o":"m 290 825 l 290 874 b 235 936 290 908 272 936 l 169 936 b 108 874 125 936 108 918 l 108 825 b 181 764 108 769 131 764 l 235 764 b 290 825 278 764 290 785 z m 290 -19 l 290 604 b 235 665 290 639 271 665 l 169 665 b 108 604 125 665 108 649 l 108 -69 b 82 -139 108 -90 114 -139 b 14 -131 58 -139 36 -131 b -31 -187 -17 -131 -31 -160 b 64 -294 -31 -279 -33 -294 b 279 -161 153 -294 254 -254 b 290 -19 290 -117 290 -64 z "},"k":{"ha":713,"x_min":0,"x_max":0,"o":"m 704 38 b 692 64 704 47 697 57 l 406 385 l 617 578 b 650 628 629 589 650 608 b 599 665 650 657 624 665 l 524 665 b 454 640 493 665 475 663 l 274 449 l 274 896 b 219 956 274 931 256 956 l 157 956 b 96 896 114 956 96 940 l 96 63 b 138 0 96 32 100 0 l 226 0 b 274 63 265 0 274 29 l 274 307 l 500 35 b 563 0 518 13 532 0 l 653 0 b 704 38 675 0 704 11 z "},"l":{"ha":374,"x_min":0,"x_max":0,"o":"m 275 63 l 275 896 b 221 956 275 931 257 956 l 158 956 b 97 896 115 956 97 940 l 97 63 b 171 0 97 7 121 0 l 221 0 b 275 63 264 0 275 24 z "},"m":{"ha":1063,"x_min":0,"x_max":0,"o":"m 969 61 l 969 492 b 810 686 969 597 928 686 b 596 611 731 686 661 653 b 463 686 568 663 519 686 b 268 622 392 686 328 657 b 221 665 258 650 253 665 l 158 665 b 97 606 115 665 97 649 l 97 61 b 150 0 97 19 104 0 l 221 0 b 275 61 264 0 275 22 l 275 464 b 414 539 310 492 368 539 b 444 421 451 539 444 443 l 444 61 b 518 0 444 6 469 0 b 622 61 575 0 622 -12 l 622 464 b 761 539 657 492 715 539 b 792 421 799 539 792 443 l 792 61 b 865 0 792 6 817 0 b 969 61 922 0 969 -12 z "},"n":{"ha":768,"x_min":0,"x_max":0,"o":"m 676 61 l 676 493 b 463 686 676 625 589 686 b 268 622 389 686 329 663 b 221 665 261 650 251 665 l 158 665 b 97 606 115 665 97 649 l 97 61 b 171 0 97 6 122 0 b 275 61 228 0 275 -12 l 275 464 b 446 540 326 504 378 540 b 489 519 464 540 479 536 b 499 421 500 500 499 443 l 499 61 b 572 0 499 6 524 0 b 676 61 628 0 676 -11 z "},"o":{"ha":793,"x_min":0,"x_max":0,"o":"m 715 333 b 397 686 715 553 632 686 b 78 333 164 686 78 553 b 397 -18 78 115 165 -18 b 715 333 631 -18 715 114 z m 536 333 b 511 172 536 286 535 215 b 397 129 486 128 443 129 b 283 172 351 129 308 128 b 257 333 260 215 257 285 b 283 494 257 382 260 450 b 397 539 308 540 350 539 b 511 494 444 539 486 540 b 536 333 535 451 536 381 z "},"p":{"ha":786,"x_min":0,"x_max":0,"o":"m 707 339 b 482 686 707 497 683 686 b 269 619 406 686 335 656 b 221 665 263 650 254 665 l 158 665 b 97 606 115 665 97 650 l 97 -228 b 171 -290 97 -283 121 -290 b 275 -228 228 -290 275 -303 l 275 -4 b 401 -18 317 -14 358 -18 b 668 115 507 -18 615 17 b 707 339 706 185 707 263 z m 528 335 b 404 129 528 238 532 129 b 275 147 361 129 317 135 l 275 467 b 460 539 321 496 406 539 b 514 493 490 539 506 521 b 528 335 526 449 528 381 z "},"q":{"ha":767,"x_min":0,"x_max":0,"o":"m 672 -228 l 672 626 b 619 676 672 664 653 674 b 389 686 543 685 465 686 b 151 594 288 686 217 679 b 78 317 89 514 78 415 b 343 -18 78 128 129 -18 b 494 19 397 -18 447 -8 l 494 -228 b 568 -290 494 -283 518 -290 b 672 -228 624 -290 672 -301 z m 494 189 b 354 129 457 158 404 129 b 257 296 254 129 257 221 b 286 499 257 347 260 451 b 369 535 304 531 335 535 b 494 526 411 535 453 532 z "},"r":{"ha":554,"x_min":0,"x_max":0,"o":"m 518 586 b 457 681 518 639 525 681 b 275 617 392 681 331 650 b 224 665 268 646 256 665 l 158 665 b 97 606 115 665 97 649 l 97 61 b 171 0 97 6 122 0 l 224 0 b 279 61 265 0 279 21 l 279 468 b 467 522 346 510 386 522 b 518 586 510 522 518 549 z "},"s":{"ha":693,"x_min":0,"x_max":0,"o":"m 604 197 b 444 392 604 319 553 356 b 269 456 415 401 283 436 b 263 483 263 465 263 472 b 343 538 263 544 290 538 b 454 532 381 538 418 536 b 526 526 478 531 503 526 b 578 613 581 526 578 572 b 508 681 578 667 558 676 b 406 683 474 683 440 683 b 90 472 235 683 90 686 b 189 315 90 392 117 351 b 268 283 214 303 242 293 b 424 228 290 275 413 242 b 432 182 433 217 432 196 b 363 131 432 131 408 131 b 218 138 314 131 265 133 b 146 146 194 140 169 146 b 106 82 108 146 104 113 l 106 57 b 144 -7 106 18 103 -1 b 343 -17 210 -17 278 -17 b 604 197 515 -17 604 8 z "},"t":{"ha":565,"x_min":0,"x_max":0,"o":"m 494 572 b 447 665 494 624 508 665 l 311 665 l 311 778 b 256 839 311 813 292 839 l 193 839 b 133 778 150 839 133 821 l 133 665 b 61 619 92 665 61 672 l 61 560 b 94 519 61 538 69 519 l 133 519 l 133 203 b 313 -17 133 57 151 -17 b 433 -10 353 -17 393 -14 b 492 60 482 -4 492 13 b 454 149 492 92 503 149 b 340 128 415 149 379 128 b 319 139 331 128 325 131 b 311 240 310 153 311 224 l 311 519 l 461 519 b 494 572 496 519 494 543 z "},"u":{"ha":768,"x_min":0,"x_max":0,"o":"m 671 60 l 671 604 b 599 665 671 658 647 665 b 493 604 543 665 493 678 l 493 204 b 322 128 439 164 392 128 b 269 246 260 128 269 203 l 269 604 b 197 665 269 658 246 665 b 92 604 142 665 92 678 l 92 175 b 306 -19 92 43 178 -19 b 501 46 379 -19 440 6 b 549 0 507 19 519 0 l 611 0 b 671 60 654 0 671 17 z "},"v":{"ha":713,"x_min":0,"x_max":0,"o":"m 665 629 b 618 665 665 657 642 665 l 547 665 b 478 617 507 665 489 656 l 358 222 l 239 618 b 171 665 228 657 210 665 l 96 665 b 49 629 69 665 49 658 b 53 608 49 622 50 615 l 257 50 b 329 0 272 8 286 0 b 456 50 389 0 432 -14 l 661 607 b 665 629 664 614 665 622 z "},"w":{"ha":1013,"x_min":0,"x_max":0,"o":"m 949 622 b 893 665 949 656 921 665 l 832 665 b 764 614 792 665 774 654 l 678 235 l 594 517 b 525 560 583 554 561 560 b 418 517 479 560 433 569 l 335 235 l 249 614 b 181 665 239 654 221 665 b 63 622 146 665 63 679 b 65 599 63 614 63 607 l 238 35 b 294 0 247 4 265 0 b 417 60 368 0 392 -14 l 506 324 l 596 60 b 664 0 610 18 615 0 l 718 0 b 774 35 747 0 764 4 l 946 599 b 949 622 949 607 949 614 z "},"x":{"ha":764,"x_min":0,"x_max":0,"o":"m 699 38 b 669 92 699 51 678 81 l 482 335 l 642 553 b 683 628 653 568 683 608 b 636 665 683 656 661 665 l 572 665 b 482 611 519 665 510 654 l 382 457 l 281 611 b 194 665 254 651 244 665 l 128 665 b 79 628 103 665 79 656 b 121 553 79 608 110 568 l 282 335 l 107 108 b 65 38 94 93 65 57 b 113 0 65 8 88 0 l 199 0 b 253 22 222 0 239 1 l 382 218 l 508 26 b 564 0 524 3 536 0 l 650 0 b 699 38 675 0 699 8 z "},"y":{"ha":732,"x_min":0,"x_max":0,"o":"m 668 625 b 621 665 668 653 646 665 b 485 611 558 665 507 681 l 367 233 l 242 626 b 164 665 229 667 201 665 l 101 665 b 53 628 81 665 53 651 b 58 606 53 619 56 614 l 286 29 l 182 -217 b 172 -250 178 -228 172 -239 b 221 -286 172 -279 196 -286 l 290 -286 b 358 -244 328 -286 344 -282 l 660 593 b 668 625 664 603 668 614 z "},"z":{"ha":686,"x_min":0,"x_max":0,"o":"m 614 58 b 554 151 614 107 619 151 b 299 140 469 151 383 146 l 588 532 b 604 579 597 546 604 563 b 557 665 604 619 613 665 l 151 665 b 92 607 113 665 92 647 b 151 514 92 558 86 514 b 382 526 228 514 306 521 l 96 135 b 72 74 83 117 72 96 b 126 0 72 33 76 0 l 554 0 b 614 58 593 0 614 18 z "},"{":{"ha":539,"x_min":0,"x_max":0,"o":"m 564 -156 l 564 -117 b 388 -25 564 -60 425 -85 b 360 215 364 13 361 171 b 250 461 357 340 339 375 b 360 707 339 547 357 582 b 388 947 361 751 364 910 b 564 1039 425 1007 564 982 b 519 1115 564 1076 572 1115 b 256 1014 428 1115 310 1096 b 199 703 200 931 204 800 b 69 461 190 569 169 549 b 199 219 169 374 190 354 b 256 -92 204 122 200 -8 b 519 -193 310 -174 428 -193 b 564 -156 544 -193 564 -183 z "},"|":{"ha":269,"x_min":0,"x_max":0,"o":"m 197 -131 l 197 1056 b 142 1115 197 1090 178 1115 l 97 1115 b 36 1056 54 1115 36 1100 l 36 -131 b 110 -193 36 -185 61 -193 l 142 -193 b 197 -131 185 -193 197 -169 z "},"}":{"ha":539,"x_min":0,"x_max":0,"o":"m 469 461 b 340 703 369 549 349 569 b 283 1014 335 800 339 931 b 19 1115 229 1096 111 1115 b -25 1078 -6 1115 -25 1106 l -25 1039 b 151 947 -25 982 114 1007 b 179 707 174 910 178 751 b 289 461 182 582 200 547 b 179 215 200 375 182 340 b 151 -25 178 171 175 13 b -25 -117 114 -85 -25 -60 b 19 -193 -25 -154 -33 -193 b 283 -92 111 -193 229 -174 b 340 219 339 -8 335 122 b 469 461 349 353 369 374 z "},"~":{"ha":483,"x_min":0,"x_max":0,"o":"m 483 678 b 446 710 483 703 468 710 l 396 710 b 329 667 361 710 351 667 b 154 708 282 667 218 708 b 18 607 90 708 47 660 b 0 557 10 593 0 574 b 36 525 0 533 14 525 l 83 525 b 163 574 121 525 128 574 b 333 531 211 574 265 531 b 471 635 401 531 444 578 b 483 678 476 647 483 663 z "},"¡":{"ha":418,"x_min":0,"x_max":0,"o":"m 207 681 b 228 690 214 681 222 685 l 324 786 b 333 810 329 792 333 800 b 324 832 333 818 329 826 l 228 928 b 206 938 222 933 214 938 b 185 928 199 938 190 933 l 89 832 b 79 810 83 826 79 818 b 89 786 79 800 83 792 l 185 690 b 207 681 190 685 199 681 z m 299 29 l 299 32 l 288 553 b 225 615 286 604 278 615 l 188 615 b 132 553 146 615 133 592 l 121 32 b 176 -28 119 -3 140 -28 l 238 -28 b 299 29 278 -28 299 -14 z "},"¢":{"ha":663,"x_min":0,"x_max":0,"o":"m 588 179 b 571 272 588 194 582 261 b 538 285 560 282 551 285 b 433 274 503 285 468 276 l 433 660 b 538 649 468 657 503 649 b 588 754 589 649 588 718 l 588 757 b 585 779 588 764 588 772 b 511 801 575 797 528 800 b 433 808 485 804 460 807 l 433 876 b 401 914 433 897 424 914 b 351 876 367 914 351 918 l 351 808 b 78 465 110 799 78 688 b 351 125 78 243 110 135 l 351 54 b 381 14 351 28 351 14 b 433 54 417 14 433 10 l 433 125 b 511 129 460 126 485 126 b 588 179 554 133 588 132 z m 351 269 b 264 336 294 271 269 272 b 258 465 260 379 258 422 b 269 600 258 510 260 557 b 351 664 282 657 293 664 z "},"£":{"ha":843,"x_min":0,"x_max":0,"o":"m 728 871 b 672 929 733 910 707 924 b 460 946 603 940 531 946 b 240 871 381 946 294 936 b 182 696 201 824 182 757 b 193 547 182 646 188 597 b 111 493 150 547 111 549 b 200 401 111 410 114 401 b 201 354 201 386 201 369 b 182 171 201 292 194 232 b 78 89 132 161 78 151 b 79 74 78 83 78 79 l 93 10 b 122 -10 96 -4 110 -10 b 246 14 164 -10 203 14 b 499 -29 328 14 404 -29 b 674 15 558 -29 621 -14 b 724 93 711 36 724 49 b 685 183 724 126 735 183 b 593 146 671 183 611 153 b 476 124 556 132 517 124 b 336 151 431 124 381 140 b 383 401 360 210 383 338 l 532 401 b 596 472 586 401 596 421 b 532 547 596 524 590 547 l 376 547 b 367 668 371 588 367 628 b 471 789 367 754 379 789 b 603 778 515 789 560 786 b 675 765 625 775 653 765 b 721 819 710 765 717 789 b 731 857 728 829 731 846 b 728 871 731 863 731 867 z "},"⁄":{"ha":240,"x_min":0,"x_max":0,"o":"m 451 944 b 389 1003 451 972 407 992 b 360 1014 381 1008 371 1014 b 319 985 342 1014 328 1000 l -196 51 b -211 10 -203 40 -211 24 b -181 -25 -211 -8 -193 -17 b -117 -57 -165 -35 -136 -57 b -75 -26 -97 -57 -83 -42 l 439 907 b 451 944 446 918 451 931 z "},"¥":{"ha":854,"x_min":0,"x_max":0,"o":"m 807 882 b 754 928 807 914 783 928 b 624 889 701 928 653 940 l 432 547 l 244 888 b 175 928 228 918 211 928 l 100 928 b 46 883 72 928 46 914 b 60 843 46 869 53 856 l 294 425 l 197 425 b 138 371 164 425 138 407 b 197 296 138 322 140 296 l 338 296 l 338 222 l 197 222 b 138 168 164 222 138 204 b 197 93 138 119 140 93 l 338 93 b 404 0 338 33 333 0 b 524 61 460 0 524 -14 l 524 93 l 664 93 b 724 153 708 93 724 110 b 664 222 724 196 711 222 l 524 222 l 524 296 l 664 296 b 724 356 708 296 724 313 b 664 425 724 399 711 425 l 560 425 l 788 828 b 807 882 796 843 807 865 z "},"ƒ":{"ha":706,"x_min":0,"x_max":0,"o":"m 690 840 l 690 878 b 629 932 690 919 665 928 b 542 940 600 936 571 940 b 282 646 336 940 317 814 b 161 592 239 646 161 658 b 254 501 161 506 168 501 l 174 61 b 94 -68 165 13 160 -68 b 26 -117 56 -68 26 -69 b 114 -215 26 -197 26 -215 b 358 82 308 -215 331 -74 l 435 501 l 535 501 b 599 574 590 501 599 524 l 599 592 b 535 646 599 633 572 646 l 463 646 b 556 785 474 706 478 785 b 649 774 589 785 621 774 b 690 840 692 774 690 804 z "},"§":{"ha":818,"x_min":0,"x_max":0,"o":"m 743 -15 b 697 122 743 35 729 83 b 743 281 728 169 743 225 b 268 703 743 596 268 558 b 432 807 268 788 365 807 b 607 774 492 807 550 792 b 646 764 619 769 632 764 b 660 772 651 764 657 768 b 707 903 668 785 707 890 b 694 914 707 910 700 913 b 431 954 635 936 496 954 b 88 699 272 954 88 885 b 143 553 88 643 106 593 b 88 404 107 511 88 460 b 565 -31 88 88 565 138 b 365 -154 565 -132 444 -154 b 188 -101 299 -154 244 -133 b 156 -87 179 -97 165 -87 b 136 -110 146 -87 139 -103 b 85 -222 126 -129 85 -206 b 113 -246 85 -233 104 -242 b 371 -301 199 -287 276 -301 b 743 -15 554 -301 743 -228 z m 565 263 b 557 215 565 246 563 231 b 394 288 504 242 449 264 b 268 408 347 308 268 347 b 289 468 268 431 275 451 b 565 263 379 433 565 383 z "},"¤":{"ha":863,"x_min":0,"x_max":0,"o":"m 775 213 l 681 306 b 726 464 710 353 726 408 b 681 622 726 519 710 575 l 775 717 l 686 810 l 590 714 b 431 760 543 744 486 760 b 271 714 375 760 318 744 l 175 810 l 86 717 l 181 622 b 135 464 151 575 135 519 b 181 306 135 408 151 353 l 86 213 l 175 119 l 271 215 b 431 169 318 185 375 169 b 590 215 486 169 543 185 l 686 119 z m 599 465 b 431 297 599 372 524 297 b 263 465 338 297 263 372 b 431 632 263 558 339 632 b 599 465 521 632 599 556 z "},"'":{"ha":289,"x_min":0,"x_max":0,"o":"m 158 793 b 213 846 197 793 210 810 l 226 1001 l 226 1006 b 171 1054 228 1038 200 1054 l 124 1054 b 61 1008 92 1054 58 1047 l 61 1001 l 75 846 b 136 793 79 806 97 793 z "},"“":{"ha":639,"x_min":0,"x_max":0,"o":"m 585 743 b 568 789 585 757 575 776 l 499 921 b 433 967 482 953 471 967 l 381 967 b 324 926 356 967 324 956 b 436 719 324 899 415 753 b 490 685 450 697 464 685 b 585 743 515 685 585 714 z m 307 743 b 292 789 307 757 299 776 l 221 921 b 156 967 204 951 193 967 l 103 967 b 46 926 78 967 46 956 b 158 719 46 903 139 750 b 214 685 172 697 188 685 b 307 743 239 685 307 714 z "},"«":{"ha":729,"x_min":0,"x_max":0,"o":"m 668 110 b 544 324 668 128 560 297 b 668 538 560 350 668 519 b 575 572 668 569 594 572 b 506 543 542 572 525 571 b 367 324 485 513 367 346 b 506 104 367 303 485 133 b 575 75 525 76 542 75 b 668 110 594 75 668 78 z m 375 110 b 368 132 375 118 372 125 l 253 324 l 368 515 b 375 538 372 522 375 529 b 283 572 375 569 303 572 b 214 543 250 572 233 571 b 75 324 193 513 75 346 b 214 104 75 303 193 133 b 283 75 233 76 250 75 b 375 110 303 75 375 78 z "},"‹":{"ha":436,"x_min":0,"x_max":0,"o":"m 375 110 b 368 132 375 118 372 125 l 253 324 l 368 515 b 375 538 372 522 375 529 b 283 572 375 569 303 572 b 214 543 250 572 233 571 b 75 324 193 513 75 346 b 214 104 75 303 193 133 b 283 75 233 76 250 75 b 375 110 303 75 375 78 z "},"›":{"ha":469,"x_min":0,"x_max":0,"o":"m 361 324 b 222 543 361 346 243 513 b 153 572 203 571 186 572 b 61 538 133 572 61 569 b 68 515 61 529 64 522 l 183 324 l 68 132 b 61 110 64 125 61 118 b 153 75 61 78 133 75 b 222 104 186 75 203 76 b 361 324 243 133 361 303 z "},"ﬁ":{"ha":918,"x_min":0,"x_max":0,"o":"m 818 826 l 818 875 b 763 936 818 910 799 936 l 697 936 b 636 875 654 936 636 919 l 636 826 b 710 764 636 771 660 764 l 763 764 b 818 826 806 764 818 788 z m 818 63 l 818 604 b 763 665 818 639 799 665 l 697 665 b 636 604 654 665 636 649 l 636 63 b 710 0 636 7 660 0 l 763 0 b 818 63 806 0 818 24 z m 519 901 l 519 911 b 513 940 519 921 518 932 b 397 967 494 968 425 967 b 158 885 308 967 215 963 b 122 721 124 836 122 779 l 122 665 b 47 626 86 665 47 675 l 47 567 b 81 518 47 542 50 518 l 122 518 l 122 54 b 164 0 122 22 126 0 l 251 0 b 300 63 294 0 300 26 l 300 518 l 435 518 b 485 571 475 518 485 531 l 485 626 b 439 665 485 660 469 665 l 300 665 b 310 804 300 688 296 783 b 360 818 319 819 344 818 b 426 814 382 818 404 817 b 478 806 444 811 461 806 b 519 901 519 806 519 872 z "},"ﬂ":{"ha":926,"x_min":0,"x_max":0,"o":"m 829 63 l 829 894 b 774 956 829 929 810 956 l 713 956 b 651 894 669 956 651 939 l 651 63 b 724 0 651 7 674 0 l 774 0 b 829 63 817 0 829 24 z m 519 901 l 519 911 b 513 940 519 921 518 932 b 397 967 494 968 425 967 b 158 885 308 967 215 963 b 122 721 124 836 122 779 l 122 665 b 47 626 86 665 47 675 l 47 567 b 81 518 47 542 50 518 l 122 518 l 122 54 b 164 0 122 22 126 0 l 251 0 b 300 63 294 0 300 26 l 300 518 l 435 518 b 485 571 475 518 485 531 l 485 626 b 439 665 485 660 469 665 l 300 665 b 310 804 300 688 296 783 b 360 818 319 819 344 818 b 426 814 382 818 404 817 b 478 806 444 811 461 806 b 519 901 519 806 519 872 z "},"–":{"ha":739,"x_min":0,"x_max":0,"o":"m 726 324 l 726 351 b 667 404 726 392 704 404 l 71 404 b 14 351 39 404 14 386 l 14 311 b 71 253 14 269 28 253 l 667 253 b 726 324 721 253 726 275 z "},"†":{"ha":750,"x_min":0,"x_max":0,"o":"m 676 608 b 613 679 676 660 668 679 l 464 679 l 464 869 b 410 928 464 904 446 928 l 347 928 b 286 869 306 928 286 914 l 286 679 l 136 679 b 74 626 103 679 74 664 b 136 536 74 574 69 536 l 286 536 l 286 61 b 360 0 286 7 311 0 b 464 61 417 0 464 -11 l 464 536 l 613 536 b 676 608 667 536 676 558 z "},"‡":{"ha":750,"x_min":0,"x_max":0,"o":"m 676 318 b 613 392 676 369 669 392 l 464 392 l 464 536 l 613 536 b 676 608 667 536 676 558 b 613 679 676 660 668 679 l 464 679 l 464 869 b 410 928 464 904 446 928 l 347 928 b 286 869 306 928 286 914 l 286 679 l 136 679 b 74 626 103 679 74 664 b 136 536 74 574 69 536 l 286 536 l 286 392 l 136 392 b 74 338 103 392 74 374 b 136 249 74 283 69 249 l 286 249 l 286 61 b 360 0 286 7 311 0 b 464 61 417 0 464 -11 l 464 249 l 613 249 b 676 318 667 249 676 268 z "},"·":{"ha":403,"x_min":0,"x_max":0,"o":"m 201 335 b 222 344 208 335 217 339 l 318 440 b 328 464 324 446 328 454 b 318 486 328 472 324 481 l 222 582 b 200 592 217 588 208 592 b 179 582 193 592 185 588 l 83 486 b 74 464 78 481 74 472 b 83 440 74 454 78 446 l 179 344 b 201 335 185 339 193 335 z "},"¶":{"ha":1057,"x_min":0,"x_max":0,"o":"m 971 -200 l 971 -182 b 861 -126 971 -117 907 -126 l 861 953 b 971 1025 929 953 971 942 b 906 1099 971 1076 963 1099 l 496 1099 b 179 1025 386 1099 264 1107 b 86 733 108 957 86 828 b 224 453 86 632 132 506 b 442 407 296 413 361 407 l 442 -126 b 333 -182 399 -126 333 -119 b 396 -272 333 -235 329 -272 l 588 -272 l 588 972 l 715 972 l 715 -272 l 906 -272 b 971 -200 960 -272 971 -251 z "},"•":{"ha":589,"x_min":0,"x_max":0,"o":"m 508 436 b 294 657 508 556 415 657 b 81 436 172 657 81 557 b 294 215 81 315 172 215 b 508 436 413 215 508 319 z "},"‚":{"ha":363,"x_min":0,"x_max":0,"o":"m 317 78 b 260 119 317 107 285 119 l 207 119 b 142 72 169 119 158 103 l 71 -60 b 56 -106 64 -72 56 -92 b 150 -162 56 -135 125 -162 b 204 -128 176 -162 190 -150 b 317 78 224 -96 317 54 z "},"„":{"ha":646,"x_min":0,"x_max":0,"o":"m 601 78 b 544 119 601 107 569 119 l 492 119 b 426 72 454 119 443 103 l 356 -60 b 340 -106 349 -72 340 -92 b 433 -162 340 -135 408 -162 b 489 -128 460 -162 475 -150 b 601 78 508 -96 601 54 z m 317 78 b 260 119 317 107 285 119 l 207 119 b 142 72 169 119 158 103 l 71 -60 b 56 -106 64 -72 56 -92 b 150 -162 56 -135 125 -162 b 204 -128 176 -162 190 -150 b 317 78 224 -96 317 54 z "},"”":{"ha":639,"x_min":0,"x_max":0,"o":"m 593 926 b 536 967 593 956 561 967 l 485 967 b 418 921 447 967 435 953 l 347 789 b 332 743 340 776 332 757 b 426 685 332 714 401 685 b 481 719 453 685 467 697 b 593 926 500 753 593 901 z m 315 926 b 260 967 315 956 285 967 l 207 967 b 142 921 169 967 158 951 l 71 789 b 56 743 64 776 56 757 b 149 685 56 714 124 685 b 204 719 175 685 190 697 b 315 926 226 756 315 896 z "},"»":{"ha":729,"x_min":0,"x_max":0,"o":"m 653 324 b 514 543 653 346 535 513 b 444 572 494 571 478 572 b 353 538 425 572 353 569 b 360 515 353 529 356 522 l 475 324 l 360 132 b 353 110 356 125 353 118 b 444 75 353 78 425 75 b 514 104 478 75 494 76 b 653 324 535 133 653 303 z m 361 324 b 222 543 361 346 243 513 b 153 572 203 571 186 572 b 60 538 133 572 60 569 b 183 324 60 519 168 350 b 60 110 168 297 60 128 b 153 75 60 78 133 75 b 222 104 186 75 203 76 b 361 324 243 133 361 303 z "},"…":{"ha":1199,"x_min":0,"x_max":0,"o":"m 1018 -37 b 1039 -28 1025 -37 1033 -33 l 1135 67 b 1144 89 1140 72 1144 81 b 1135 113 1144 99 1140 107 l 1039 208 b 1017 218 1033 214 1025 218 b 996 208 1010 218 1001 214 l 900 113 b 890 89 894 107 890 99 b 900 67 890 81 894 72 l 996 -28 b 1018 -37 1001 -33 1010 -37 z m 614 -37 b 636 -28 622 -37 631 -33 l 732 67 b 742 89 738 72 742 81 b 732 113 742 99 738 107 l 636 208 b 614 218 631 214 622 218 b 593 208 607 218 599 214 l 497 113 b 488 89 492 107 488 99 b 497 67 488 81 492 72 l 593 -28 b 615 -37 599 -33 607 -37 z m 211 -37 b 233 -28 219 -37 228 -33 l 329 67 b 339 89 335 72 339 81 b 329 113 339 99 335 107 l 233 208 b 211 218 228 214 219 218 b 190 208 204 218 196 214 l 94 113 b 85 89 89 107 85 99 b 94 67 85 81 89 72 l 190 -28 b 213 -37 196 -33 204 -37 z "},"‰":{"ha":1725,"x_min":0,"x_max":0,"o":"m 1683 228 b 1474 472 1683 371 1632 472 b 1267 226 1317 472 1267 368 b 1472 -18 1267 85 1315 -18 b 1683 228 1632 -18 1683 83 z m 1136 228 b 926 472 1136 371 1085 472 b 719 226 769 472 719 368 b 925 -18 719 85 768 -18 b 1136 228 1085 -18 1136 83 z m 906 921 b 892 950 906 932 901 944 b 822 985 872 961 843 985 b 785 961 806 985 793 975 l 278 28 b 274 8 275 22 274 15 b 286 -21 274 -3 276 -15 l 340 -53 b 356 -56 344 -56 350 -56 b 394 -32 372 -56 386 -47 l 900 901 b 906 921 903 907 906 914 z m 446 701 b 236 946 446 844 394 946 b 31 701 79 946 31 843 b 235 456 31 561 76 456 b 446 701 394 456 446 557 z m 1553 226 b 1536 113 1553 196 1550 140 b 1475 90 1525 92 1496 90 b 1413 113 1454 90 1424 92 b 1397 226 1399 139 1397 197 b 1413 340 1397 256 1399 314 b 1475 363 1424 361 1454 363 b 1536 340 1497 363 1524 361 b 1553 226 1551 314 1553 257 z m 1006 226 b 989 113 1006 196 1003 140 b 928 90 978 92 949 90 b 865 113 907 90 876 92 b 850 226 851 139 850 197 b 865 340 850 256 851 314 b 928 363 876 361 907 363 b 989 340 950 363 976 361 b 1006 226 1004 314 1006 257 z m 317 700 b 299 588 317 669 314 615 b 238 565 288 567 258 565 b 176 588 217 565 188 565 b 160 701 163 615 160 671 b 176 815 160 732 163 788 b 238 838 188 838 217 838 b 299 815 260 838 286 836 b 317 700 314 788 317 731 z "},"¿":{"ha":699,"x_min":0,"x_max":0,"o":"m 393 700 b 414 710 400 700 408 704 l 510 806 b 519 829 515 811 519 819 b 510 851 519 838 515 846 l 414 947 b 392 957 408 953 400 957 b 371 947 385 957 376 953 l 275 851 b 265 829 269 846 265 838 b 275 806 265 819 269 811 l 371 710 b 393 700 376 704 385 700 z m 604 31 b 589 125 604 57 593 97 b 556 149 586 142 571 149 b 525 144 546 149 535 146 b 351 122 468 133 410 122 b 257 204 290 122 257 139 b 481 543 257 339 481 400 b 428 635 481 594 494 635 l 378 635 b 328 596 346 635 328 632 b 283 494 328 546 317 529 b 75 196 196 404 75 338 b 344 -28 75 22 188 -28 b 556 -11 415 -28 486 -22 b 604 31 579 -7 604 1 z "},"`":{"ha":322,"x_min":0,"x_max":0,"o":"m 322 811 b 172 1017 322 831 193 1003 b 108 1025 158 1026 125 1025 b 0 993 85 1025 0 1031 b 81 888 0 971 64 907 b 176 790 104 858 140 806 b 211 783 189 785 199 783 l 268 783 b 322 811 288 783 322 785 z "},"´":{"ha":322,"x_min":0,"x_max":0,"o":"m 322 993 b 213 1025 322 1031 235 1025 b 150 1017 199 1025 163 1025 b 0 811 129 1000 0 831 b 57 783 0 782 36 783 l 110 783 b 149 792 124 783 135 786 b 307 964 178 803 281 931 b 322 993 314 972 322 982 z "},"ˆ":{"ha":436,"x_min":0,"x_max":0,"o":"m 436 786 b 426 811 436 796 432 804 l 328 947 b 218 1006 288 1003 288 1006 b 108 947 149 1006 149 1003 l 10 811 b 0 786 4 804 0 796 b 93 756 0 758 78 756 b 125 760 104 756 115 756 b 175 819 144 767 164 803 b 218 878 189 839 203 858 b 261 819 233 858 247 839 b 311 760 272 803 292 767 b 343 756 321 756 332 756 b 436 786 358 756 436 758 z "},"˜":{"ha":485,"x_min":0,"x_max":0,"o":"m 485 918 b 446 950 485 943 468 950 b 382 944 429 950 396 954 b 329 907 364 932 354 907 b 154 949 282 907 218 949 b 19 847 90 949 47 900 b 0 790 11 832 0 807 b 24 767 0 776 8 767 b 108 776 47 767 89 763 b 163 815 126 790 138 815 b 333 772 213 815 267 772 b 471 875 401 772 443 817 b 485 918 476 888 485 904 z "},"¯":{"ha":404,"x_min":0,"x_max":0,"o":"m 404 842 b 346 904 404 885 392 904 l 57 904 b 0 850 24 904 0 883 l 0 829 b 57 771 0 788 14 771 l 346 771 b 404 842 400 771 404 793 z "},"˘":{"ha":450,"x_min":0,"x_max":0,"o":"m 450 971 b 376 1022 450 1021 421 1022 b 329 985 350 1022 329 1015 b 226 864 329 913 306 864 b 124 985 147 864 124 913 b 75 1022 124 1018 104 1022 b 0 971 31 1022 0 1021 b 226 756 0 843 103 756 b 450 971 350 756 450 844 z "},"˙":{"ha":182,"x_min":0,"x_max":0,"o":"m 182 803 l 182 850 b 126 908 182 885 163 908 l 61 908 b 0 850 19 908 0 894 l 0 803 b 74 742 0 749 25 742 l 126 742 b 182 803 168 742 182 764 z "},"¨":{"ha":432,"x_min":0,"x_max":0,"o":"m 432 813 l 432 906 b 392 949 432 928 415 949 l 301 949 b 261 906 278 949 261 928 l 261 813 b 301 771 261 790 278 771 l 392 771 b 432 813 415 771 432 790 z m 171 813 l 171 906 b 131 949 171 928 154 949 l 40 949 b 0 906 17 949 0 928 l 0 813 b 40 771 0 790 17 771 l 131 771 b 171 813 154 771 171 790 z "},"˚":{"ha":247,"x_min":0,"x_max":0,"o":"m 247 875 b 124 1003 247 944 194 1003 b 0 875 54 1003 0 943 b 124 747 0 808 56 747 b 247 875 194 747 247 806 z m 178 875 b 124 821 178 847 153 821 b 71 875 93 821 71 846 b 124 931 71 904 93 931 b 178 875 154 931 178 904 z "},"¸":{"ha":261,"x_min":0,"x_max":0,"o":"m 261 -29 b 235 0 261 -11 254 0 l 165 0 b 115 -35 142 0 129 -18 b 6 -160 93 -60 14 -136 b 0 -175 1 -164 0 -169 b 44 -207 0 -204 18 -207 l 99 -207 b 163 -171 131 -207 144 -194 l 250 -56 b 261 -29 254 -50 261 -36 z "},"˝":{"ha":436,"x_min":0,"x_max":0,"o":"m 579 993 b 469 1025 579 1031 492 1025 b 407 1017 456 1025 419 1025 b 257 811 386 1000 257 831 b 314 783 257 782 293 783 l 367 783 b 406 792 381 783 392 786 b 564 964 435 803 538 931 b 579 993 571 972 579 982 z m 276 993 b 167 1025 276 1031 189 1025 b 104 1017 153 1025 117 1025 b -46 811 83 1000 -46 831 b 11 783 -46 782 -10 783 l 64 783 b 103 792 78 783 89 786 b 261 964 132 803 235 931 b 276 993 268 972 276 982 z "},"˛":{"ha":261,"x_min":0,"x_max":0,"o":"m 261 -175 b 256 -160 261 -169 260 -164 b 146 -35 247 -136 168 -60 b 96 0 132 -18 119 0 l 26 0 b 0 -29 7 0 0 -11 b 11 -56 0 -36 7 -50 l 99 -171 b 163 -207 117 -194 131 -207 l 217 -207 b 261 -175 243 -207 261 -204 z "},"ˇ":{"ha":436,"x_min":0,"x_max":0,"o":"m 436 983 b 343 1014 436 1011 358 1014 b 311 1010 332 1014 321 1014 b 261 950 292 1003 272 967 b 218 892 247 931 233 911 b 175 950 203 911 189 931 b 125 1010 164 967 144 1003 b 93 1014 115 1014 104 1014 b 0 983 78 1014 0 1011 b 10 958 0 974 4 965 l 108 822 b 218 764 149 767 149 764 b 328 822 288 764 288 767 l 426 958 b 436 983 432 965 436 974 z "},"—":{"ha":1410,"x_min":0,"x_max":0,"o":"m 1397 324 l 1397 351 b 1338 404 1397 392 1375 404 l 71 404 b 14 351 39 404 14 386 l 14 311 b 71 253 14 269 28 253 l 1338 253 b 1397 324 1392 253 1397 275 z "},"Æ":{"ha":1264,"x_min":0,"x_max":0,"o":"m 1182 57 b 1124 160 1182 107 1193 160 b 811 156 1019 160 915 158 l 811 415 b 1092 410 904 413 999 410 b 1151 475 1139 410 1151 432 b 1092 560 1151 522 1153 560 b 811 556 999 560 904 558 l 811 772 b 1124 768 915 769 1019 768 b 1182 833 1171 768 1182 790 b 1124 928 1182 883 1189 928 l 539 928 b 375 778 440 928 414 856 l 40 92 b 25 46 35 81 25 60 b 85 0 25 13 57 0 b 217 56 156 0 183 -14 l 338 308 l 626 308 l 626 61 b 694 0 626 13 649 0 l 1124 0 b 1182 57 1163 0 1182 17 z m 626 453 l 408 453 l 550 746 b 585 772 560 765 563 772 l 626 772 z "},"ª":{"ha":529,"x_min":0,"x_max":0,"o":"m 461 563 l 461 765 b 425 903 461 815 463 865 b 286 943 392 936 331 943 b 132 926 238 943 179 939 b 101 888 111 921 101 910 b 135 832 101 861 97 832 b 147 835 139 832 143 833 b 292 854 193 846 244 854 b 336 786 335 854 336 819 b 61 640 225 785 61 796 b 200 511 61 551 114 511 b 339 550 249 511 296 528 b 369 522 343 533 351 522 l 421 522 b 461 563 449 522 461 535 z m 336 639 b 213 599 297 615 258 599 b 182 649 185 599 182 628 b 294 701 182 708 251 701 b 336 700 308 701 322 700 z "},"Ł":{"ha":797,"x_min":0,"x_max":0,"o":"m 714 0 b 772 94 779 0 772 43 b 714 160 772 138 761 160 b 443 157 624 160 533 158 l 443 496 l 644 697 b 660 738 654 707 660 722 b 617 807 660 769 638 785 b 578 825 607 818 593 825 b 536 806 563 825 547 817 l 443 711 l 443 871 b 325 928 443 942 376 928 b 257 871 283 928 257 918 l 257 526 l 107 375 b 86 333 96 364 86 350 b 108 288 86 315 97 300 b 169 244 125 268 140 244 b 208 261 183 244 199 250 l 257 311 l 257 61 b 325 0 257 13 279 0 z "},"Ø":{"ha":1017,"x_min":0,"x_max":0,"o":"m 951 904 b 938 935 951 915 946 926 b 875 978 925 946 892 978 b 839 953 860 978 847 963 l 772 872 b 514 954 700 935 607 954 b 119 463 206 954 119 735 b 174 163 119 361 128 254 l 83 56 b 67 21 75 46 67 35 b 146 -53 67 0 128 -53 b 182 -28 161 -53 174 -39 l 253 57 b 514 -29 325 -10 418 -29 b 815 97 633 -29 739 0 b 911 463 900 203 911 332 b 854 769 911 567 903 675 b 951 904 872 790 951 875 z m 660 742 l 318 333 b 311 463 311 376 311 419 b 343 703 311 528 315 644 b 514 792 375 772 442 792 b 660 742 567 792 622 782 z m 718 463 b 688 224 718 397 715 282 b 514 133 656 154 586 133 b 365 189 460 133 403 146 l 710 603 b 718 463 717 557 718 510 z "},"Œ":{"ha":1232,"x_min":0,"x_max":0,"o":"m 1150 57 b 1092 160 1150 106 1161 160 b 779 156 988 160 883 158 l 779 414 b 1061 410 874 413 967 410 b 1119 475 1108 410 1119 433 b 1061 560 1119 521 1122 560 b 779 556 967 560 874 557 l 779 772 b 1092 768 883 769 988 768 b 1150 833 1139 768 1150 792 b 1092 928 1150 883 1157 928 l 488 928 b 269 899 417 928 336 925 b 88 454 97 831 88 611 b 488 0 88 150 160 0 l 1092 0 b 1150 57 1131 0 1150 17 z m 593 164 b 515 161 567 161 542 161 b 417 168 482 161 449 163 b 285 331 322 185 294 240 b 279 451 279 371 279 411 l 279 464 b 371 749 279 556 265 707 b 515 767 410 764 472 767 b 593 764 542 767 567 767 z "},"º":{"ha":564,"x_min":0,"x_max":0,"o":"m 501 724 b 281 940 501 872 428 940 b 61 724 135 940 61 871 b 281 510 61 578 136 510 b 501 724 425 510 501 576 z m 374 724 b 357 629 374 694 372 654 b 281 604 342 603 308 604 b 206 629 253 604 221 603 b 190 724 190 654 190 696 b 206 821 190 751 190 796 b 281 844 222 847 253 844 b 356 821 308 844 339 847 b 374 724 372 794 374 754 z "},"æ":{"ha":1124,"x_min":0,"x_max":0,"o":"m 1044 361 b 768 686 1044 569 997 686 b 574 640 703 686 629 678 b 393 686 525 678 453 686 b 165 660 325 686 231 679 b 126 601 135 651 126 632 b 167 518 126 567 118 518 b 200 522 178 518 189 519 b 400 551 264 538 335 551 b 469 418 478 551 469 474 b 293 407 410 419 351 414 b 67 189 157 392 67 340 b 265 -18 67 56 129 -18 b 522 79 356 -18 451 26 b 775 -18 576 -3 685 -18 b 985 0 843 -18 917 -14 b 1035 61 1024 8 1035 22 b 994 150 1035 88 1033 150 b 946 140 978 150 963 144 b 776 118 890 128 833 118 b 647 257 671 118 646 156 l 647 276 l 986 276 b 1044 361 1049 276 1044 307 z m 875 399 l 647 399 b 768 547 647 499 654 547 b 875 425 863 547 875 511 z m 483 185 b 285 111 426 144 356 111 b 233 204 239 111 233 171 b 318 292 233 265 260 285 b 403 296 346 296 375 296 b 471 293 425 296 449 294 b 483 185 472 257 476 219 z "},"ı":{"ha":383,"x_min":0,"x_max":0,"o":"m 282 60 l 282 589 b 226 646 282 624 261 646 l 161 646 b 100 589 119 646 100 632 l 100 60 b 174 0 100 6 126 0 l 226 0 b 282 60 268 0 282 21 z "},"ł":{"ha":625,"x_min":0,"x_max":0,"o":"m 386 486 l 553 669 b 569 711 563 681 569 696 b 529 775 569 742 549 756 b 488 793 518 786 504 793 b 450 775 474 793 460 786 l 386 701 l 386 896 b 329 956 386 931 365 956 l 268 956 b 207 896 225 956 207 940 l 207 513 l 75 369 b 57 328 65 358 57 344 b 75 288 57 313 64 299 b 138 244 93 268 110 244 b 207 299 171 244 189 276 l 207 63 b 279 0 207 7 229 0 b 386 63 336 0 386 -11 z "},"ø":{"ha":796,"x_min":0,"x_max":0,"o":"m 747 678 b 688 739 747 701 711 739 b 650 718 672 739 660 729 l 586 643 b 399 686 531 676 463 686 b 79 333 165 686 79 553 b 132 103 79 254 90 171 b 56 -1 117 86 56 22 b 121 -60 56 -22 101 -60 b 160 -37 138 -60 150 -49 l 213 25 b 399 -18 268 -8 335 -18 b 717 333 632 -18 717 114 b 665 563 717 411 707 494 b 747 678 682 582 747 650 z m 488 525 l 261 257 b 258 333 258 282 258 308 b 285 494 258 382 261 450 b 399 539 310 540 351 539 b 488 525 425 539 464 539 z m 538 333 b 513 172 538 286 536 215 b 399 129 488 128 444 129 b 311 142 374 129 333 129 l 533 407 b 538 333 535 382 538 358 z "},"œ":{"ha":1188,"x_min":0,"x_max":0,"o":"m 1108 361 b 832 686 1108 569 1061 686 b 614 622 758 686 669 676 b 397 686 554 672 474 686 b 78 333 164 686 78 553 b 397 -18 78 114 165 -18 b 614 47 474 -18 554 -3 b 839 -18 672 -6 763 -18 b 1049 0 907 -18 982 -14 b 1099 61 1088 8 1099 22 b 1058 150 1099 88 1097 150 b 1010 140 1042 150 1026 144 b 840 118 954 128 897 118 b 711 257 735 118 710 156 l 711 276 l 1050 276 b 1108 361 1113 276 1108 307 z m 939 399 l 711 399 b 832 547 711 499 718 547 b 939 425 926 547 939 511 z m 536 333 b 511 172 536 286 535 215 b 397 129 486 128 443 129 b 283 172 351 129 308 128 b 257 333 260 215 257 285 b 283 494 257 382 260 450 b 397 539 308 540 350 539 b 511 494 444 539 486 540 b 536 333 535 451 536 381 z "},"ß":{"ha":822,"x_min":0,"x_max":0,"o":"m 742 349 b 649 586 742 432 736 546 b 713 747 708 619 713 686 b 424 965 713 950 594 965 b 97 696 218 965 97 926 l 97 63 b 171 0 97 7 121 0 b 276 63 226 0 276 -11 l 276 732 b 415 818 276 814 351 818 b 538 728 490 818 538 814 b 400 649 538 643 464 649 b 335 575 346 649 335 625 b 389 504 335 535 340 504 b 563 365 510 504 563 506 b 515 156 563 313 563 193 b 464 140 500 144 482 140 b 381 146 436 140 408 146 b 329 94 350 146 329 125 b 333 71 329 86 331 78 b 350 21 339 54 344 38 b 451 -15 363 -14 421 -15 b 742 349 674 -15 742 154 z "},"¹":{"ha":478,"x_min":0,"x_max":0,"o":"m 303 508 l 303 901 b 257 946 303 928 283 946 b 133 910 219 946 168 925 b 100 872 117 903 100 893 b 142 810 100 844 107 810 b 176 821 149 810 168 818 l 176 508 b 232 464 176 471 200 464 l 257 464 b 303 508 286 464 303 479 z "},"¬":{"ha":697,"x_min":0,"x_max":0,"o":"m 631 179 l 631 544 l 65 544 l 65 418 l 504 418 l 504 179 z "},"µ":{"ha":768,"x_min":0,"x_max":0,"o":"m 671 60 l 671 604 b 599 665 671 658 647 665 b 493 604 542 665 493 676 l 493 204 b 322 128 439 164 392 128 b 269 146 303 128 285 135 l 269 604 b 197 665 269 658 246 665 b 92 604 140 665 92 676 l 92 -225 b 153 -290 92 -271 106 -290 l 213 -290 b 269 -228 258 -290 269 -271 l 269 -14 b 314 -19 283 -18 299 -19 b 501 46 396 -19 436 0 b 549 0 507 19 519 0 l 611 0 b 671 60 654 0 671 17 z "},"™":{"ha":1311,"x_min":0,"x_max":0,"o":"m 1240 417 l 1240 425 l 1196 883 b 1139 928 1193 918 1171 928 b 1032 894 1097 928 1053 939 b 922 632 992 810 958 719 b 814 894 886 719 854 810 b 756 928 801 919 783 928 b 650 883 715 928 656 940 l 604 425 l 604 417 b 661 372 601 382 631 372 b 751 428 711 372 747 367 l 769 661 b 847 471 796 597 821 533 b 897 432 860 443 864 432 l 932 432 b 988 474 967 432 972 446 b 1075 661 1019 529 1051 600 l 1093 421 b 1146 372 1096 389 1114 372 b 1240 417 1182 372 1243 364 z m 542 860 b 489 928 542 900 538 928 l 114 928 b 61 881 83 928 61 914 b 114 807 61 839 61 807 b 228 810 151 807 190 810 l 228 422 b 285 372 228 385 250 372 b 375 422 325 372 375 365 l 375 810 b 489 807 413 810 451 807 b 542 860 525 807 542 824 z "},"Ð":{"ha":938,"x_min":0,"x_max":0,"o":"m 854 454 b 671 899 854 613 844 831 b 453 928 604 925 524 928 l 210 928 b 143 871 168 928 143 918 l 143 564 b 54 510 104 564 54 564 b 143 414 54 425 53 414 l 143 61 b 210 0 143 13 164 0 l 453 0 b 854 454 783 0 854 150 z m 663 464 l 663 451 b 657 331 663 411 663 371 b 525 168 647 240 619 185 b 425 161 492 163 458 161 b 329 165 393 161 361 163 l 329 414 l 450 414 b 513 485 504 414 513 435 b 450 564 513 536 511 564 l 329 564 l 329 763 b 425 767 361 765 393 767 b 576 747 465 767 540 764 b 663 464 672 704 663 551 z "},"½":{"ha":1178,"x_min":0,"x_max":0,"o":"m 1107 43 b 1058 108 1107 81 1104 108 b 932 106 1017 108 974 107 b 1104 363 1010 172 1104 251 b 939 492 1104 461 1025 492 b 826 483 901 492 864 489 b 782 443 804 479 782 468 b 828 372 782 413 790 372 b 868 379 842 372 854 376 b 939 385 892 383 915 385 b 975 351 967 385 975 381 b 803 139 975 290 847 182 b 756 67 782 119 756 97 b 801 0 756 29 754 0 l 1058 0 b 1107 43 1086 0 1107 13 z m 892 921 b 878 950 892 932 888 944 b 808 985 858 961 829 985 b 771 961 792 985 779 975 l 264 28 b 260 8 261 22 260 15 b 272 -21 260 -3 263 -15 l 326 -53 b 342 -56 331 -56 336 -56 b 381 -32 358 -56 372 -47 l 886 901 b 892 921 889 907 892 914 z m 303 508 l 303 901 b 257 946 303 928 283 946 b 133 910 219 946 168 925 b 100 872 117 903 100 893 b 142 810 100 844 107 810 b 176 821 149 810 168 818 l 176 508 b 232 464 176 471 200 464 l 257 464 b 303 508 286 464 303 479 z "},"±":{"ha":763,"x_min":0,"x_max":0,"o":"m 688 388 l 688 508 l 444 508 l 444 744 l 318 744 l 318 508 l 75 508 l 75 388 l 318 388 l 318 151 l 444 151 l 444 388 z m 688 -72 l 688 47 l 75 47 l 75 -72 z "},"Þ":{"ha":761,"x_min":0,"x_max":0,"o":"m 728 469 b 656 729 728 554 718 665 b 418 794 586 800 511 794 l 279 794 l 279 867 b 219 928 279 907 261 928 b 93 871 169 928 93 944 l 93 61 b 161 0 93 13 115 0 l 219 0 b 279 61 261 0 279 21 l 279 167 b 728 469 540 167 728 140 z m 543 479 b 526 351 543 449 546 378 b 436 325 507 326 464 325 l 279 325 l 279 589 b 333 635 279 628 299 635 b 394 635 354 635 374 635 b 506 625 419 635 485 636 b 543 479 544 606 543 514 z "},"¼":{"ha":1178,"x_min":0,"x_max":0,"o":"m 1043 110 b 1104 165 1088 110 1104 117 b 1043 213 1104 208 1081 213 l 1043 438 b 999 482 1043 464 1026 482 l 958 482 b 921 461 943 482 931 472 l 724 215 b 711 185 717 207 711 197 b 714 168 711 179 713 174 b 763 110 722 140 725 110 l 929 110 l 929 44 b 983 0 929 7 951 0 l 999 0 b 1043 44 1028 0 1043 15 z m 892 921 b 878 950 892 932 888 944 b 808 985 858 961 829 985 b 771 961 792 985 779 975 l 264 28 b 260 8 261 22 260 15 b 272 -21 260 -3 263 -15 l 326 -53 b 342 -56 331 -56 336 -56 b 381 -32 358 -56 372 -47 l 886 901 b 892 921 889 907 892 914 z m 303 508 l 303 901 b 257 946 303 928 283 946 b 133 910 219 946 168 925 b 100 872 117 903 100 893 b 142 810 100 844 107 810 b 176 821 149 810 168 818 l 176 508 b 232 464 176 471 200 464 l 257 464 b 303 508 286 464 303 479 z m 929 210 b 840 207 900 208 869 208 l 929 317 z "},"÷":{"ha":763,"x_min":0,"x_max":0,"o":"m 457 568 b 369 658 457 615 418 658 b 283 568 319 658 283 617 b 369 478 283 521 321 478 b 457 568 418 478 457 519 z m 683 272 l 683 393 l 79 393 l 79 272 z m 457 97 b 369 188 457 144 418 188 b 283 97 319 188 283 146 b 369 7 283 50 321 7 b 457 97 418 7 457 49 z "},"¦":{"ha":271,"x_min":0,"x_max":0,"o":"m 200 522 l 200 971 l 71 971 l 71 522 z m 200 -46 l 200 403 l 71 403 l 71 -46 z "},"°":{"ha":556,"x_min":0,"x_max":0,"o":"m 456 799 b 278 983 456 897 379 983 b 100 799 175 983 100 900 b 278 614 100 700 176 614 b 456 799 379 614 456 699 z m 360 799 b 278 715 360 753 324 715 b 199 799 233 715 199 756 b 278 882 199 843 232 882 b 360 799 325 882 360 844 z "},"þ":{"ha":786,"x_min":0,"x_max":0,"o":"m 707 344 b 482 686 707 503 682 686 b 275 621 408 686 339 656 l 275 894 b 221 956 275 929 258 956 l 158 956 b 97 894 114 956 97 939 l 97 -226 b 171 -290 97 -282 121 -290 b 275 -226 229 -290 275 -301 l 275 -4 b 401 -18 317 -14 358 -18 b 668 117 508 -18 615 17 b 707 344 706 186 707 267 z m 528 342 b 468 139 528 290 526 164 b 404 129 447 131 426 129 b 275 149 361 129 317 136 l 275 465 b 460 539 321 494 406 539 b 514 493 492 539 507 522 b 528 342 526 447 528 389 z "},"¾":{"ha":1178,"x_min":0,"x_max":0,"o":"m 1043 110 b 1104 165 1088 110 1104 117 b 1043 213 1104 208 1081 213 l 1043 438 b 999 482 1043 464 1026 482 l 958 482 b 921 461 943 482 931 472 l 724 215 b 711 185 717 207 711 197 b 714 168 711 179 713 174 b 763 110 722 140 725 110 l 929 110 l 929 44 b 983 0 929 7 951 0 l 999 0 b 1043 44 1028 0 1043 15 z m 919 921 b 906 950 919 932 915 944 b 836 985 886 961 857 985 b 799 961 819 985 807 975 l 292 28 b 288 8 289 22 288 15 b 300 -21 288 -3 290 -15 l 354 -53 b 369 -56 358 -56 364 -56 b 408 -32 386 -56 400 -47 l 914 901 b 919 921 917 907 919 914 z m 417 607 b 367 718 417 653 407 692 b 397 811 390 744 397 776 b 221 946 397 921 315 946 b 89 906 192 946 89 951 b 90 894 89 901 89 899 b 131 832 96 868 93 832 b 158 836 139 832 150 835 b 224 842 181 839 201 842 b 272 806 257 842 272 842 b 201 753 272 750 254 753 b 113 715 171 753 113 763 b 171 647 113 664 111 647 b 254 644 199 647 226 649 b 290 606 282 640 290 635 b 243 554 290 567 283 554 b 129 576 203 554 167 565 b 114 579 124 578 119 579 b 64 506 81 579 64 533 b 239 446 64 456 203 446 b 417 607 347 446 417 492 z m 929 210 b 840 207 900 208 869 208 l 929 317 z "},"²":{"ha":478,"x_min":0,"x_max":0,"o":"m 417 497 b 368 563 417 535 414 563 b 242 560 326 563 283 561 b 414 817 319 626 414 706 b 249 946 414 915 335 946 b 136 938 211 946 174 943 b 92 897 114 933 92 922 b 138 826 92 867 100 826 b 178 833 151 826 164 831 b 249 839 200 838 225 839 b 285 806 276 839 285 835 b 113 593 285 744 157 636 b 65 521 92 574 65 551 b 111 454 65 483 64 454 l 368 454 b 417 497 396 454 417 467 z "},"®":{"ha":1332,"x_min":0,"x_max":0,"o":"m 1249 339 b 656 951 1249 738 1061 951 b 232 796 497 951 343 917 b 83 332 110 664 83 506 b 232 -132 83 158 110 0 b 654 -287 343 -251 496 -287 b 1249 339 1069 -287 1249 -64 z m 1074 326 b 993 -11 1074 211 1047 92 b 672 -146 933 -121 786 -146 b 339 -12 558 -146 400 -122 b 261 332 285 85 261 222 b 339 676 261 442 285 579 b 669 810 400 786 556 810 b 993 675 783 810 935 786 b 1074 326 1050 568 1074 446 z m 933 54 b 918 90 933 67 926 81 l 778 249 b 901 421 869 267 901 333 b 849 596 901 481 893 551 b 678 640 799 644 743 640 l 497 640 b 444 596 465 640 444 632 l 444 69 b 497 24 444 32 463 24 b 588 69 536 24 588 14 l 588 243 l 608 243 l 769 50 b 835 24 788 28 807 24 l 893 24 b 933 54 913 24 933 31 z m 758 428 b 690 360 758 371 749 360 l 588 360 l 588 496 b 643 522 588 528 619 522 l 671 522 b 736 517 685 522 725 522 b 758 428 758 506 758 447 z "},"−":{"ha":779,"x_min":0,"x_max":0,"o":"m 708 293 l 708 431 l 71 431 l 71 293 z "},"ð":{"ha":792,"x_min":0,"x_max":0,"o":"m 714 317 b 524 883 714 494 697 783 b 538 917 532 893 538 904 b 463 976 538 942 486 976 b 410 936 440 976 422 951 b 274 954 365 949 319 954 b 193 940 258 954 204 957 b 190 924 190 936 190 929 b 293 808 190 801 172 808 b 256 751 281 796 256 769 b 326 688 256 726 303 688 b 421 763 360 688 400 739 b 519 611 472 728 506 671 b 382 654 479 639 431 654 b 78 317 167 654 78 518 b 396 -18 78 103 176 -18 b 714 317 614 -18 714 106 z m 535 317 b 504 160 535 269 531 200 b 410 128 485 131 442 128 l 382 128 b 285 165 344 128 306 131 b 257 317 261 204 257 272 b 282 464 257 361 260 424 b 378 508 304 504 336 508 l 411 508 b 510 464 453 508 488 504 b 535 317 532 422 535 363 z "},"×":{"ha":711,"x_min":0,"x_max":0,"o":"m 649 146 l 458 332 l 649 519 l 547 621 l 356 433 l 164 621 l 63 519 l 253 332 l 63 146 l 164 44 l 356 232 l 547 44 z "},"³":{"ha":478,"x_min":0,"x_max":0,"o":"m 417 607 b 367 718 417 653 407 692 b 397 811 390 744 397 776 b 221 946 397 921 315 946 b 89 906 192 946 89 951 b 90 894 89 901 89 899 b 131 832 96 868 93 832 b 158 836 139 832 150 835 b 224 842 181 839 201 842 b 272 806 257 842 272 842 b 201 753 272 750 254 753 b 113 715 171 753 113 763 b 171 647 113 664 111 647 b 254 644 199 647 226 649 b 290 606 282 640 290 635 b 243 554 290 567 283 554 b 129 576 203 554 167 565 b 114 579 124 578 119 579 b 64 506 81 579 64 533 b 239 446 64 456 203 446 b 417 607 347 446 417 492 z "},"©":{"ha":1332,"x_min":0,"x_max":0,"o":"m 1249 339 b 656 951 1249 735 1058 951 b 232 796 497 951 343 917 b 83 332 110 664 83 506 b 232 -132 83 158 110 0 b 654 -287 343 -251 496 -287 b 1249 339 1069 -287 1249 -64 z m 1074 326 b 993 -11 1074 211 1047 92 b 671 -146 933 -121 785 -146 b 339 -12 557 -146 400 -122 b 261 332 285 85 261 222 b 339 676 261 442 285 579 b 669 810 400 786 556 810 b 993 675 783 810 935 786 b 1074 326 1050 568 1074 446 z m 869 44 b 826 125 869 83 878 125 b 721 121 792 125 756 121 b 647 124 697 121 671 119 b 561 290 568 138 561 225 b 563 351 561 311 563 331 b 618 504 564 401 564 482 b 721 515 642 514 694 515 b 826 511 756 515 792 511 b 869 563 864 511 869 529 l 869 592 b 814 631 869 625 840 628 b 703 635 776 633 740 635 b 414 313 469 635 414 539 b 703 1 414 94 476 1 b 814 6 740 1 776 3 b 869 44 840 8 869 11 z "},"Á":{"ha":872,"x_min":0,"x_max":0,"o":"m 629 1239 b 519 1271 629 1276 542 1271 b 457 1263 506 1271 468 1272 b 307 1057 433 1244 307 1078 b 371 1029 307 1026 350 1029 l 417 1029 b 456 1038 431 1029 442 1032 b 614 1210 488 1051 583 1174 b 629 1239 621 1218 629 1228 z m 846 42 b 840 63 846 49 843 56 l 540 872 b 458 933 524 917 507 933 b 319 871 385 933 347 947 l 35 76 b 24 33 31 65 24 44 b 78 0 24 1 51 0 b 213 58 150 0 188 -17 l 268 222 b 593 222 376 219 485 219 l 654 49 b 719 0 665 15 683 0 l 796 0 b 846 42 824 0 846 11 z m 540 365 l 318 365 l 429 693 z "},"Â":{"ha":872,"x_min":0,"x_max":0,"o":"m 653 1063 b 643 1088 653 1071 649 1081 l 544 1224 b 435 1282 504 1279 504 1282 b 325 1224 365 1282 365 1279 l 226 1088 b 217 1063 221 1081 217 1071 b 310 1032 217 1036 294 1032 b 342 1036 321 1032 332 1032 b 392 1096 360 1043 382 1081 b 435 1154 406 1117 419 1135 b 478 1096 450 1135 464 1117 b 528 1036 490 1078 507 1044 b 560 1032 538 1032 549 1032 b 653 1063 575 1032 653 1036 z m 846 42 b 840 63 846 49 843 56 l 540 872 b 458 933 524 917 507 933 b 319 871 385 933 347 947 l 35 76 b 24 33 31 65 24 44 b 78 0 24 1 51 0 b 213 58 150 0 188 -17 l 268 222 b 593 222 376 219 485 219 l 654 49 b 719 0 665 15 683 0 l 796 0 b 846 42 824 0 846 11 z m 540 365 l 318 365 l 429 693 z "},"Ä":{"ha":872,"x_min":0,"x_max":0,"o":"m 654 1092 l 654 1185 b 614 1228 654 1207 638 1228 l 524 1228 b 483 1185 500 1228 483 1207 l 483 1092 b 524 1050 483 1069 501 1050 l 614 1050 b 654 1092 636 1050 654 1069 z m 393 1092 l 393 1185 b 353 1228 393 1207 376 1228 l 263 1228 b 222 1185 239 1228 222 1207 l 222 1092 b 263 1050 222 1069 240 1050 l 353 1050 b 393 1092 375 1050 393 1069 z m 846 42 b 840 63 846 49 843 56 l 540 872 b 458 933 524 917 507 933 b 319 871 385 933 347 947 l 35 76 b 24 33 31 65 24 44 b 78 0 24 1 51 0 b 213 58 150 0 188 -17 l 268 222 b 593 222 376 219 485 219 l 654 49 b 719 0 665 15 683 0 l 796 0 b 846 42 824 0 846 11 z m 540 365 l 318 365 l 429 693 z "},"À":{"ha":872,"x_min":0,"x_max":0,"o":"m 582 1058 b 432 1264 582 1078 453 1250 b 368 1272 418 1274 385 1272 b 260 1240 344 1272 260 1278 b 340 1135 260 1218 324 1154 b 436 1038 364 1104 400 1053 b 471 1031 449 1033 458 1031 l 528 1031 b 582 1058 547 1031 582 1031 z m 846 42 b 840 63 846 49 843 56 l 540 872 b 458 933 524 917 507 933 b 319 871 385 933 347 947 l 35 76 b 24 33 31 65 24 44 b 78 0 24 1 51 0 b 213 58 150 0 188 -17 l 268 222 b 593 222 376 219 485 219 l 654 49 b 719 0 665 15 683 0 l 796 0 b 846 42 824 0 846 11 z m 540 365 l 318 365 l 429 693 z "},"Å":{"ha":872,"x_min":0,"x_max":0,"o":"m 558 1192 b 435 1319 558 1260 504 1319 b 311 1192 364 1319 311 1261 b 435 1064 311 1124 365 1064 b 558 1192 506 1064 558 1122 z m 846 42 b 840 63 846 49 843 56 l 540 872 b 458 933 524 917 507 933 b 319 871 385 933 347 947 l 35 76 b 24 33 31 65 24 44 b 78 0 24 1 51 0 b 213 58 150 0 188 -17 l 268 222 b 593 222 376 219 485 219 l 654 49 b 719 0 665 15 683 0 l 796 0 b 846 42 824 0 846 11 z m 489 1192 b 435 1138 489 1164 464 1138 b 382 1192 404 1138 382 1161 b 435 1247 382 1222 404 1247 b 489 1192 465 1247 489 1221 z m 540 365 l 318 365 l 429 693 z "},"Ã":{"ha":872,"x_min":0,"x_max":0,"o":"m 683 1199 b 644 1231 683 1224 667 1231 b 581 1225 628 1231 594 1235 b 528 1188 563 1213 553 1188 b 353 1229 482 1188 417 1229 b 218 1128 288 1229 247 1181 b 199 1071 210 1114 199 1088 b 222 1047 199 1057 207 1047 l 268 1047 b 361 1096 328 1047 325 1096 b 532 1053 413 1096 467 1053 b 669 1156 600 1053 642 1099 b 683 1199 675 1168 683 1185 z m 846 42 b 840 63 846 49 843 56 l 540 872 b 458 933 524 917 507 933 b 319 871 385 933 347 947 l 35 76 b 24 33 31 65 24 44 b 78 0 24 1 51 0 b 213 58 150 0 188 -17 l 268 222 b 593 222 376 219 485 219 l 654 49 b 719 0 665 15 683 0 l 796 0 b 846 42 824 0 846 11 z m 540 365 l 318 365 l 429 693 z "},"Ç":{"ha":785,"x_min":0,"x_max":0,"o":"m 718 39 l 718 86 b 665 153 718 129 714 153 b 515 146 615 153 565 146 b 408 151 481 146 443 144 b 279 451 271 178 279 343 b 364 757 279 538 267 715 b 515 776 401 774 474 776 b 665 769 565 776 615 769 b 718 836 714 769 718 793 l 718 882 b 646 931 718 925 681 928 b 488 938 593 935 540 938 b 269 906 417 938 336 933 b 88 453 99 833 88 611 b 301 8 88 275 103 71 b 386 -10 329 0 358 -6 l 281 -122 b 263 -160 271 -132 263 -146 b 308 -192 263 -189 282 -192 b 431 -156 363 -192 394 -203 l 521 -35 b 529 -15 525 -29 528 -22 b 646 -8 568 -14 607 -11 b 718 39 679 -6 718 -4 z "},"É":{"ha":747,"x_min":0,"x_max":0,"o":"m 586 1239 b 476 1271 586 1276 499 1271 b 414 1263 463 1271 426 1271 b 264 1057 393 1247 264 1075 b 328 1029 264 1026 307 1029 l 374 1029 b 413 1038 388 1029 399 1032 b 571 1210 444 1051 540 1175 b 586 1239 578 1218 586 1228 z m 661 57 b 601 160 661 107 671 160 b 290 156 497 160 394 158 l 290 414 b 571 410 383 413 478 410 b 631 475 618 410 631 432 b 571 560 631 522 632 560 b 290 556 478 560 383 557 l 290 772 b 601 768 394 769 497 768 b 661 833 649 768 661 790 b 601 928 661 886 668 928 l 172 928 b 104 871 131 928 104 918 l 104 61 b 172 0 104 13 126 0 l 601 0 b 661 57 640 0 661 15 z "},"Ê":{"ha":747,"x_min":0,"x_max":0,"o":"m 610 1063 b 600 1088 610 1071 606 1081 l 501 1224 b 392 1282 461 1279 461 1282 b 282 1224 322 1282 322 1279 l 183 1088 b 174 1063 178 1081 174 1071 b 267 1032 174 1036 251 1032 b 299 1036 278 1032 289 1032 b 349 1096 319 1044 336 1078 b 392 1154 363 1117 376 1135 b 435 1096 407 1135 421 1117 b 485 1036 446 1079 465 1043 b 517 1032 494 1032 506 1032 b 610 1063 532 1032 610 1036 z m 661 57 b 601 160 661 107 671 160 b 290 156 497 160 394 158 l 290 414 b 571 410 383 413 478 410 b 631 475 618 410 631 432 b 571 560 631 522 632 560 b 290 556 478 560 383 557 l 290 772 b 601 768 394 769 497 768 b 661 833 649 768 661 790 b 601 928 661 886 668 928 l 172 928 b 104 871 131 928 104 918 l 104 61 b 172 0 104 13 126 0 l 601 0 b 661 57 640 0 661 15 z "},"Ë":{"ha":747,"x_min":0,"x_max":0,"o":"m 606 1092 l 606 1185 b 565 1228 606 1207 589 1228 l 475 1228 b 435 1185 451 1228 435 1207 l 435 1092 b 475 1050 435 1069 453 1050 l 565 1050 b 606 1092 588 1050 606 1069 z m 344 1092 l 344 1185 b 304 1228 344 1207 328 1228 l 214 1228 b 174 1185 190 1228 174 1207 l 174 1092 b 214 1050 174 1069 192 1050 l 304 1050 b 344 1092 326 1050 344 1069 z m 661 57 b 601 160 661 107 671 160 b 290 156 497 160 394 158 l 290 414 b 571 410 383 413 478 410 b 631 475 618 410 631 432 b 571 560 631 522 632 560 b 290 556 478 560 383 557 l 290 772 b 601 768 394 769 497 768 b 661 833 649 768 661 790 b 601 928 661 886 668 928 l 172 928 b 104 871 131 928 104 918 l 104 61 b 172 0 104 13 126 0 l 601 0 b 661 57 640 0 661 15 z "},"È":{"ha":747,"x_min":0,"x_max":0,"o":"m 503 1058 b 353 1264 503 1076 374 1250 b 289 1272 339 1274 306 1272 b 181 1240 265 1272 181 1278 b 261 1135 181 1218 244 1154 b 357 1038 285 1106 322 1051 b 392 1031 369 1032 379 1031 l 449 1031 b 503 1058 469 1031 503 1031 z m 661 57 b 601 160 661 107 671 160 b 290 156 497 160 394 158 l 290 414 b 571 410 383 413 478 410 b 631 475 618 410 631 432 b 571 560 631 522 632 560 b 290 556 478 560 383 557 l 290 772 b 601 768 394 769 497 768 b 661 833 649 768 661 790 b 601 928 661 886 668 928 l 172 928 b 104 871 131 928 104 918 l 104 61 b 172 0 104 13 126 0 l 601 0 b 661 57 640 0 661 15 z "},"Í":{"ha":415,"x_min":0,"x_max":0,"o":"m 369 1239 b 258 1271 369 1276 281 1271 b 196 1263 244 1271 208 1271 b 46 1057 178 1249 46 1072 b 111 1029 46 1026 90 1029 l 157 1029 b 196 1038 172 1029 182 1032 b 354 1210 229 1051 322 1174 b 369 1239 361 1218 369 1228 z m 306 61 l 304 61 l 304 871 b 244 928 304 911 283 928 l 185 928 b 118 871 143 928 118 918 l 118 61 b 186 0 118 13 140 0 l 246 0 b 306 61 286 0 306 21 z "},"Î":{"ha":415,"x_min":0,"x_max":0,"o":"m 426 1063 b 415 1088 426 1071 421 1081 l 317 1224 b 207 1282 276 1279 276 1282 b 97 1224 138 1282 138 1279 l -1 1088 b -11 1063 -7 1081 -11 1071 b 83 1032 -11 1036 68 1032 b 115 1036 94 1032 106 1032 b 165 1096 135 1044 154 1079 b 208 1154 179 1117 193 1135 b 251 1096 224 1135 238 1117 b 301 1036 263 1078 281 1044 b 333 1032 311 1032 322 1032 b 426 1063 349 1032 426 1036 z m 294 61 l 293 61 l 293 871 b 233 928 293 911 272 928 l 174 928 b 107 871 132 928 107 918 l 107 61 b 175 0 107 13 129 0 l 235 0 b 294 61 275 0 294 21 z "},"Ï":{"ha":415,"x_min":0,"x_max":0,"o":"m 424 1092 l 424 1185 b 383 1228 424 1208 407 1228 l 293 1228 b 253 1185 269 1228 253 1207 l 253 1092 b 293 1050 253 1069 271 1050 l 383 1050 b 424 1092 407 1050 424 1069 z m 163 1092 l 163 1185 b 122 1228 163 1208 146 1228 l 32 1228 b -8 1185 8 1228 -8 1207 l -8 1092 b 32 1050 -8 1069 10 1050 l 122 1050 b 163 1092 146 1050 163 1069 z m 289 61 l 289 871 b 229 928 289 911 268 928 l 169 928 b 103 871 129 928 103 917 l 103 61 b 169 0 103 13 124 0 l 229 0 b 289 61 271 0 289 21 z "},"Ì":{"ha":415,"x_min":0,"x_max":0,"o":"m 369 1058 b 218 1264 369 1074 238 1251 b 154 1272 204 1274 171 1272 b 46 1240 131 1272 46 1278 b 128 1135 46 1221 113 1153 b 224 1038 151 1106 189 1051 b 258 1031 236 1032 246 1031 l 315 1031 b 369 1058 336 1031 369 1031 z m 319 61 l 318 61 l 318 871 b 258 928 318 910 297 928 l 199 928 b 132 871 157 928 132 918 l 132 61 b 200 0 132 11 154 0 l 260 0 b 319 61 300 0 319 21 z "},"Ñ":{"ha":961,"x_min":0,"x_max":0,"o":"m 701 1194 b 663 1226 701 1219 685 1226 b 599 1221 646 1226 613 1231 b 546 1183 582 1208 569 1183 b 371 1225 499 1183 435 1225 b 236 1124 306 1225 265 1178 b 217 1067 228 1110 217 1083 b 240 1043 217 1053 225 1043 l 286 1043 b 379 1092 346 1043 343 1092 b 550 1049 429 1092 483 1049 b 688 1151 617 1049 660 1094 b 701 1194 693 1164 701 1181 z m 853 61 l 853 871 b 794 928 853 911 835 928 b 669 871 744 928 669 943 l 669 331 b 413 703 583 454 499 579 b 317 840 382 749 350 794 b 275 899 303 860 290 881 b 204 928 253 926 238 928 b 100 871 157 928 100 938 l 100 61 b 167 0 100 13 121 0 b 283 61 219 0 283 -12 l 283 593 b 535 225 367 471 450 347 b 632 88 567 179 599 133 b 674 29 646 68 658 47 b 751 0 697 0 717 0 b 853 61 803 0 853 -10 z "},"Ó":{"ha":965,"x_min":0,"x_max":0,"o":"m 681 1239 b 571 1271 681 1276 593 1271 b 508 1263 557 1271 521 1271 b 358 1057 488 1247 358 1075 b 422 1029 358 1026 401 1029 l 468 1029 b 507 1038 483 1029 493 1032 b 665 1210 540 1051 633 1174 b 681 1239 672 1218 681 1228 z m 876 463 b 481 954 876 733 788 954 b 85 463 171 954 85 735 b 481 -29 85 190 171 -29 b 876 463 788 -29 876 192 z m 683 463 b 653 224 683 397 681 282 b 481 133 621 154 553 133 b 308 224 408 133 340 154 b 278 463 281 282 278 397 b 308 703 278 528 281 644 b 481 792 342 772 408 792 b 653 703 551 792 621 772 b 683 463 681 644 683 528 z "},"Ô":{"ha":965,"x_min":0,"x_max":0,"o":"m 697 1063 b 688 1088 697 1071 693 1081 l 589 1224 b 479 1282 549 1279 549 1282 b 369 1224 410 1282 410 1279 l 271 1088 b 261 1063 265 1081 261 1071 b 354 1032 261 1036 339 1032 b 386 1036 365 1032 376 1032 b 436 1096 407 1044 424 1078 b 479 1154 450 1117 464 1135 b 522 1096 494 1135 508 1117 b 572 1036 532 1081 554 1043 b 604 1032 582 1032 593 1032 b 697 1063 619 1032 697 1036 z m 876 463 b 481 954 876 733 788 954 b 85 463 171 954 85 735 b 481 -29 85 190 171 -29 b 876 463 788 -29 876 192 z m 683 463 b 653 224 683 397 681 282 b 481 133 621 154 553 133 b 308 224 408 133 340 154 b 278 463 281 282 278 397 b 308 703 278 528 281 644 b 481 792 342 772 408 792 b 653 703 551 792 621 772 b 683 463 681 644 683 528 z "},"Ö":{"ha":965,"x_min":0,"x_max":0,"o":"m 697 1092 l 697 1185 b 657 1228 697 1207 681 1228 l 567 1228 b 526 1185 543 1228 526 1207 l 526 1092 b 567 1050 526 1069 544 1050 l 657 1050 b 697 1092 679 1050 697 1069 z m 436 1092 l 436 1185 b 396 1228 436 1207 419 1228 l 306 1228 b 265 1185 282 1228 265 1207 l 265 1092 b 306 1050 265 1069 283 1050 l 396 1050 b 436 1092 418 1050 436 1069 z m 876 463 b 481 954 876 733 788 954 b 85 463 171 954 85 735 b 481 -29 85 190 171 -29 b 876 463 788 -29 876 192 z m 683 463 b 653 224 683 397 681 282 b 481 133 621 154 553 133 b 308 224 408 133 340 154 b 278 463 281 282 278 397 b 308 703 278 528 281 644 b 481 792 342 772 408 792 b 653 703 551 792 621 772 b 683 463 681 644 683 528 z "},"Ò":{"ha":965,"x_min":0,"x_max":0,"o":"m 628 1058 b 478 1264 628 1078 499 1250 b 414 1272 464 1274 431 1272 b 306 1240 390 1272 306 1278 b 386 1135 306 1218 369 1154 b 482 1038 410 1106 446 1053 b 517 1031 494 1032 504 1031 l 574 1031 b 628 1058 593 1031 628 1031 z m 876 463 b 481 954 876 733 788 954 b 85 463 171 954 85 735 b 481 -29 85 190 171 -29 b 876 463 788 -29 876 192 z m 683 463 b 653 224 683 397 681 282 b 481 133 621 154 553 133 b 308 224 408 133 340 154 b 278 463 281 282 278 397 b 308 703 278 528 281 644 b 481 792 342 772 408 792 b 653 703 551 792 621 772 b 683 463 681 644 683 528 z "},"Õ":{"ha":965,"x_min":0,"x_max":0,"o":"m 735 1194 b 696 1226 735 1219 717 1226 b 632 1221 679 1226 646 1231 b 579 1183 615 1208 601 1183 b 404 1225 532 1183 468 1225 b 269 1124 339 1225 299 1178 b 250 1067 261 1110 250 1083 b 274 1043 250 1051 258 1043 l 319 1043 b 413 1092 378 1043 376 1092 b 583 1049 463 1092 517 1049 b 721 1151 650 1049 693 1094 b 735 1194 726 1164 735 1181 z m 876 463 b 481 954 876 733 788 954 b 85 463 171 954 85 735 b 481 -29 85 190 171 -29 b 876 463 788 -29 876 192 z m 683 463 b 653 224 683 397 681 282 b 481 133 621 154 553 133 b 308 224 408 133 340 154 b 278 463 281 282 278 397 b 308 703 278 528 281 644 b 481 792 342 772 408 792 b 653 703 551 792 621 772 b 683 463 681 644 683 528 z "},"Š":{"ha":751,"x_min":0,"x_max":0,"o":"m 617 1265 b 524 1296 617 1292 539 1296 b 492 1292 513 1296 501 1296 b 442 1232 471 1283 454 1250 b 399 1174 428 1211 414 1193 b 356 1232 383 1193 369 1211 b 306 1292 344 1249 325 1285 b 274 1296 296 1296 285 1296 b 181 1265 258 1296 181 1292 b 190 1240 181 1257 185 1247 l 289 1104 b 399 1046 329 1049 329 1046 b 508 1104 468 1046 468 1049 l 607 1240 b 617 1265 613 1247 617 1257 z m 692 286 b 589 485 692 385 679 436 b 457 546 547 508 501 526 b 343 594 419 563 381 576 b 294 676 297 617 294 626 b 369 778 294 742 292 778 b 529 775 422 778 475 778 b 619 769 558 774 589 769 b 674 836 668 769 674 792 l 674 882 b 600 931 674 925 633 928 b 443 938 549 935 496 938 b 250 915 381 938 310 935 b 113 689 135 876 113 801 b 286 433 113 525 139 497 b 461 360 344 408 403 385 b 494 340 472 354 486 350 b 510 239 514 321 510 264 b 399 149 510 149 482 149 b 154 160 317 149 236 160 b 101 93 106 160 101 136 l 101 46 b 174 -3 101 4 140 1 b 378 -12 240 -11 310 -12 b 665 92 476 -12 613 -7 b 692 286 692 140 692 231 z "},"Ú":{"ha":944,"x_min":0,"x_max":0,"o":"m 689 1239 b 579 1271 689 1276 601 1271 b 517 1263 565 1271 529 1271 b 367 1057 496 1247 367 1075 b 431 1029 367 1026 410 1029 l 476 1029 b 515 1038 492 1029 501 1032 b 674 1210 550 1053 642 1174 b 689 1239 681 1218 689 1228 z m 847 553 l 847 871 b 790 928 847 910 831 928 l 731 928 b 661 871 689 928 661 919 l 661 461 b 632 210 661 389 664 278 b 469 142 601 144 533 142 b 308 210 406 142 339 144 b 279 461 276 278 279 388 l 279 871 b 218 928 279 910 257 928 l 160 928 b 93 871 118 928 93 918 l 93 531 b 197 53 93 388 82 158 b 469 -21 268 -11 378 -21 b 743 53 560 -21 674 -11 b 847 553 860 160 847 408 z "},"Û":{"ha":944,"x_min":0,"x_max":0,"o":"m 693 1063 b 683 1088 693 1071 689 1081 l 585 1224 b 475 1282 544 1279 544 1282 b 365 1224 406 1282 406 1279 l 267 1088 b 257 1063 261 1081 257 1071 b 350 1032 257 1036 335 1032 b 382 1036 361 1032 372 1032 b 432 1096 403 1044 419 1078 b 475 1154 446 1117 460 1135 b 518 1096 490 1135 504 1117 b 568 1036 529 1079 549 1043 b 600 1032 578 1032 589 1032 b 693 1063 615 1032 693 1036 z m 847 553 l 847 871 b 790 928 847 910 831 928 l 731 928 b 661 871 689 928 661 919 l 661 461 b 632 210 661 389 664 278 b 469 142 601 144 533 142 b 308 210 406 142 339 144 b 279 461 276 278 279 388 l 279 871 b 218 928 279 910 257 928 l 160 928 b 93 871 118 928 93 918 l 93 531 b 197 53 93 388 82 158 b 469 -21 268 -11 378 -21 b 743 53 560 -21 674 -11 b 847 553 860 160 847 408 z "},"Ü":{"ha":944,"x_min":0,"x_max":0,"o":"m 689 1092 l 689 1185 b 649 1228 689 1207 672 1228 l 558 1228 b 518 1185 535 1228 518 1207 l 518 1092 b 558 1050 518 1069 536 1050 l 649 1050 b 689 1092 671 1050 689 1069 z m 428 1092 l 428 1185 b 388 1228 428 1207 411 1228 l 297 1228 b 257 1185 274 1228 257 1207 l 257 1092 b 297 1050 257 1069 275 1050 l 388 1050 b 428 1092 410 1050 428 1069 z m 847 553 l 847 871 b 790 928 847 910 831 928 l 731 928 b 661 871 689 928 661 919 l 661 461 b 632 210 661 389 664 278 b 469 142 601 144 533 142 b 308 210 406 142 339 144 b 279 461 276 278 279 388 l 279 871 b 218 928 279 910 257 928 l 160 928 b 93 871 118 928 93 918 l 93 531 b 197 53 93 388 82 158 b 469 -21 268 -11 378 -21 b 743 53 560 -21 674 -11 b 847 553 860 160 847 408 z "},"Ù":{"ha":944,"x_min":0,"x_max":0,"o":"m 585 1058 b 435 1264 585 1078 456 1250 b 371 1272 421 1274 388 1272 b 263 1240 347 1272 263 1278 b 343 1135 263 1218 326 1154 b 439 1038 367 1106 403 1053 b 474 1031 451 1032 461 1031 l 531 1031 b 585 1058 550 1031 585 1031 z m 847 553 l 847 871 b 790 928 847 910 831 928 l 731 928 b 661 871 689 928 661 919 l 661 461 b 632 210 661 389 664 278 b 469 142 601 144 533 142 b 308 210 406 142 339 144 b 279 461 276 278 279 388 l 279 871 b 218 928 279 910 257 928 l 160 928 b 93 871 118 928 93 918 l 93 531 b 197 53 93 388 82 158 b 469 -21 268 -11 378 -21 b 743 53 560 -21 674 -11 b 847 553 860 160 847 408 z "},"Ý":{"ha":854,"x_min":0,"x_max":0,"o":"m 661 1239 b 551 1271 661 1276 574 1271 b 489 1263 538 1271 501 1271 b 339 1057 468 1247 339 1075 b 403 1029 339 1026 382 1029 l 449 1029 b 488 1038 464 1029 474 1032 b 646 1210 522 1053 614 1174 b 661 1239 653 1218 661 1228 z m 829 882 b 776 928 829 914 807 928 b 646 889 724 928 675 940 l 454 547 l 267 888 b 197 928 250 918 233 928 l 122 928 b 68 883 94 928 68 914 b 82 843 68 869 75 856 l 360 349 l 360 61 b 426 0 360 13 381 0 b 546 61 483 0 546 -15 l 546 360 l 810 828 b 829 882 818 843 829 865 z "},"Ÿ":{"ha":854,"x_min":0,"x_max":0,"o":"m 644 1094 l 644 1188 b 604 1231 644 1210 628 1231 l 514 1231 b 474 1188 490 1231 474 1210 l 474 1094 b 514 1053 474 1072 490 1053 l 604 1053 b 644 1094 628 1053 644 1072 z m 383 1094 l 383 1188 b 343 1231 383 1210 367 1231 l 253 1231 b 213 1188 229 1231 213 1210 l 213 1094 b 253 1053 213 1072 229 1053 l 343 1053 b 383 1094 367 1053 383 1072 z m 806 882 b 753 928 806 914 782 928 b 622 889 700 928 651 942 l 431 547 l 243 888 b 174 928 226 918 210 928 l 99 928 b 44 883 71 928 44 914 b 58 843 44 869 51 856 l 336 349 l 336 61 b 403 0 336 13 357 0 b 522 61 458 0 522 -14 l 522 360 l 786 828 b 806 882 794 843 806 865 z "},"Ž":{"ha":800,"x_min":0,"x_max":0,"o":"m 643 1268 b 550 1299 643 1296 565 1299 b 518 1294 539 1299 528 1299 b 468 1235 497 1286 481 1253 b 425 1176 454 1215 440 1196 b 382 1235 410 1196 396 1215 b 332 1294 371 1251 351 1288 b 300 1299 322 1299 311 1299 b 207 1268 285 1299 207 1296 b 217 1243 207 1260 211 1250 l 315 1107 b 425 1049 356 1051 356 1049 b 535 1107 494 1049 494 1051 l 633 1243 b 643 1268 639 1250 643 1260 z m 743 892 b 699 928 743 918 722 928 l 151 928 b 92 871 113 928 92 913 b 151 768 92 821 82 768 b 482 774 261 768 372 771 l 85 119 b 61 53 72 100 61 76 b 117 0 61 19 85 0 l 675 0 b 733 57 714 0 733 17 b 675 160 733 107 744 160 b 306 147 551 160 429 153 l 722 832 b 743 892 732 849 743 872 z "},"á":{"ha":736,"x_min":0,"x_max":0,"o":"m 589 1024 b 479 1056 589 1061 501 1056 b 417 1047 465 1056 429 1056 b 267 842 396 1032 267 860 b 331 814 267 811 310 814 l 376 814 b 415 822 390 814 401 817 b 574 994 447 836 543 960 b 589 1024 581 1003 589 1013 z m 642 60 l 642 397 b 589 622 642 475 644 561 b 390 686 542 675 457 686 b 163 660 324 686 225 678 b 124 601 132 650 124 632 b 164 518 124 567 115 518 b 197 522 175 518 186 519 b 397 551 261 538 331 551 b 467 418 475 551 467 474 b 290 407 407 419 349 414 b 64 189 154 392 64 340 b 263 -18 64 56 126 -18 b 468 50 340 -18 403 10 b 508 0 469 22 476 0 l 586 0 b 642 60 628 0 642 19 z m 468 181 b 282 111 411 140 353 111 b 231 204 236 111 231 171 b 313 292 231 264 256 283 b 400 296 342 296 371 296 b 468 293 422 296 446 294 z "},"â":{"ha":736,"x_min":0,"x_max":0,"o":"m 582 833 b 572 858 582 844 578 850 l 474 994 b 364 1053 433 1050 433 1053 b 254 994 294 1053 294 1050 l 156 858 b 146 833 150 851 146 842 b 239 803 146 807 224 803 b 271 807 250 803 261 803 b 321 867 292 815 310 849 b 364 925 335 886 349 906 b 407 867 379 907 393 886 b 457 807 418 850 438 814 b 489 803 467 803 478 803 b 582 833 504 803 582 807 z m 642 60 l 642 397 b 589 622 642 475 643 561 b 390 686 542 675 458 686 b 163 660 324 686 225 678 b 124 601 131 650 124 633 b 164 518 124 567 115 518 b 197 522 175 518 186 521 b 397 551 261 535 332 551 b 467 418 475 551 467 474 b 290 407 407 419 349 414 b 64 189 153 392 64 342 b 263 -18 64 56 126 -18 b 468 50 339 -18 404 10 b 508 0 468 21 476 0 l 586 0 b 642 60 628 0 642 21 z m 468 181 b 282 111 411 142 353 111 b 231 204 236 111 231 169 b 313 292 231 264 254 283 b 400 296 342 296 371 296 b 468 293 422 296 446 294 z "},"ä":{"ha":736,"x_min":0,"x_max":0,"o":"m 603 854 l 603 947 b 563 990 603 969 586 990 l 472 990 b 432 947 449 990 432 971 l 432 854 b 472 813 432 832 449 813 l 563 813 b 603 854 585 813 603 832 z m 342 854 l 342 947 b 301 990 342 969 325 990 l 211 990 b 171 947 188 990 171 971 l 171 854 b 211 813 171 832 188 813 l 301 813 b 342 854 324 813 342 832 z m 642 60 l 642 397 b 589 622 642 475 643 561 b 390 686 542 675 458 686 b 163 660 324 686 225 678 b 124 601 131 650 124 633 b 164 518 124 567 115 518 b 197 522 175 518 186 521 b 397 551 261 535 332 551 b 467 418 475 551 467 474 b 290 407 407 419 349 414 b 64 189 153 392 64 342 b 263 -18 64 56 126 -18 b 468 50 339 -18 404 10 b 508 0 468 21 476 0 l 586 0 b 642 60 628 0 642 21 z m 468 181 b 282 111 411 142 353 111 b 231 204 236 111 231 169 b 313 292 231 264 254 283 b 400 296 342 296 371 296 b 468 293 422 296 446 294 z "},"à":{"ha":736,"x_min":0,"x_max":0,"o":"m 506 840 b 356 1046 506 858 376 1032 b 272 1054 339 1057 293 1054 b 183 1022 249 1054 183 1057 b 264 917 183 1001 249 936 b 360 819 288 886 322 833 b 394 813 371 815 382 813 l 451 813 b 506 840 471 813 506 814 z m 642 60 l 642 397 b 589 622 642 475 644 561 b 390 686 542 675 457 686 b 163 660 324 686 225 678 b 124 601 132 650 124 632 b 164 518 124 567 115 518 b 197 522 175 518 186 519 b 397 551 261 538 331 551 b 467 418 475 551 467 474 b 290 407 407 419 349 414 b 64 189 154 392 64 340 b 263 -18 64 56 126 -18 b 468 50 340 -18 403 10 b 508 0 469 22 476 0 l 586 0 b 642 60 628 0 642 19 z m 468 181 b 282 111 411 140 353 111 b 231 204 236 111 231 171 b 313 292 231 264 256 283 b 400 296 342 296 371 296 b 468 293 422 296 446 294 z "},"å":{"ha":736,"x_min":0,"x_max":0,"o":"m 510 921 b 386 1049 510 990 457 1049 b 263 921 317 1049 263 989 b 386 793 263 854 318 793 b 510 921 457 793 510 851 z m 642 60 l 642 397 b 589 622 642 475 643 561 b 390 686 542 675 458 686 b 163 660 324 686 225 678 b 124 601 131 650 124 633 b 164 518 124 567 115 518 b 197 522 175 518 186 521 b 397 551 261 535 332 551 b 467 418 475 551 467 474 b 290 407 407 419 349 414 b 64 189 153 392 64 342 b 263 -18 64 56 126 -18 b 468 50 339 -18 404 10 b 508 0 468 21 476 0 l 586 0 b 642 60 628 0 642 21 z m 440 921 b 386 867 440 893 415 867 b 333 921 356 867 333 892 b 386 976 333 950 356 976 b 440 921 417 976 440 951 z m 468 181 b 282 111 411 142 353 111 b 231 204 236 111 231 169 b 313 292 231 264 254 283 b 400 296 342 296 371 296 b 468 293 422 296 446 294 z "},"ã":{"ha":736,"x_min":0,"x_max":0,"o":"m 622 953 b 583 985 622 978 606 985 b 519 979 567 985 533 989 b 467 942 501 968 492 942 b 293 983 421 942 357 983 b 158 882 228 983 188 936 b 139 825 150 868 139 842 b 163 801 139 810 147 801 b 247 811 186 801 226 796 b 301 850 265 824 278 850 b 472 807 351 850 406 807 b 608 910 540 807 581 853 b 622 953 614 922 622 939 z m 642 60 l 642 397 b 589 622 642 475 643 561 b 390 686 542 675 458 686 b 163 660 324 686 225 678 b 124 601 131 650 124 633 b 164 518 124 567 115 518 b 197 522 175 518 186 519 b 397 551 261 538 331 551 b 467 418 475 551 467 474 b 290 407 407 419 349 414 b 64 189 153 392 64 342 b 263 -18 64 56 126 -18 b 468 50 339 -18 404 10 b 508 0 468 21 476 0 l 586 0 b 642 60 628 0 642 21 z m 468 181 b 282 111 411 142 353 111 b 231 204 236 111 231 169 b 313 292 231 264 254 283 b 400 296 342 296 371 296 b 468 293 422 296 446 294 z "},"ç":{"ha":664,"x_min":0,"x_max":0,"o":"m 588 39 b 571 133 588 56 582 121 b 538 147 561 144 551 147 b 479 142 518 147 499 143 b 351 131 436 136 394 131 b 264 200 292 131 269 138 b 258 333 260 244 258 289 b 269 472 258 379 260 428 b 351 538 282 526 293 538 b 478 526 393 538 436 532 b 538 521 497 525 518 521 b 588 629 588 521 588 594 l 588 632 b 585 656 588 640 588 649 b 511 679 575 675 529 678 b 393 686 472 683 432 686 b 76 333 122 686 76 592 b 313 -15 76 142 93 4 b 203 -144 292 -37 211 -122 b 197 -160 199 -149 197 -154 b 242 -193 197 -189 214 -193 l 296 -193 b 360 -156 328 -193 342 -181 l 447 -37 b 454 -17 451 -32 454 -24 b 511 -12 474 -15 492 -14 b 588 39 556 -7 588 -10 z "},"é":{"ha":728,"x_min":0,"x_max":0,"o":"m 606 1025 b 496 1057 606 1063 518 1057 b 433 1049 482 1057 446 1057 b 283 843 413 1033 283 861 b 347 815 283 813 326 815 l 393 815 b 432 824 407 815 418 818 b 590 996 461 836 563 963 b 606 1025 597 1004 606 1014 z m 650 361 b 374 686 650 568 603 686 b 78 329 122 686 78 553 b 381 -18 78 100 131 -18 b 590 0 449 -18 524 -14 b 640 61 629 8 640 22 b 600 150 640 88 639 150 b 551 140 583 150 568 144 b 382 118 496 128 439 118 b 253 257 276 118 251 156 l 253 276 l 592 276 b 650 361 654 276 650 307 z m 481 399 l 253 399 b 374 547 253 499 260 547 b 481 425 468 547 481 511 z "},"ê":{"ha":728,"x_min":0,"x_max":0,"o":"m 599 833 b 589 858 599 842 594 851 l 490 994 b 381 1053 450 1050 450 1053 b 271 994 311 1053 311 1050 l 172 858 b 163 833 167 851 163 842 b 256 803 163 807 240 803 b 288 807 267 803 278 803 b 338 867 307 814 326 850 b 381 925 351 886 365 906 b 424 867 396 906 410 886 b 474 807 435 849 453 815 b 506 803 483 803 494 803 b 599 833 521 803 599 807 z m 650 361 b 374 686 650 568 603 686 b 78 329 122 686 78 553 b 381 -18 78 100 131 -18 b 590 0 449 -18 524 -14 b 640 61 629 8 640 22 b 600 150 640 88 639 150 b 551 140 583 150 568 144 b 382 118 496 128 439 118 b 253 257 276 118 251 156 l 253 276 l 592 276 b 650 361 654 276 650 307 z m 481 399 l 253 399 b 374 547 253 499 260 547 b 481 425 468 547 481 511 z "},"ë":{"ha":728,"x_min":0,"x_max":0,"o":"m 601 854 l 601 947 b 561 990 601 969 585 990 l 471 990 b 431 947 447 990 431 969 l 431 854 b 471 813 431 832 449 813 l 561 813 b 601 854 583 813 601 832 z m 340 854 l 340 947 b 300 990 340 969 324 990 l 210 990 b 169 947 186 990 169 969 l 169 854 b 210 813 169 832 188 813 l 300 813 b 340 854 322 813 340 832 z m 650 361 b 374 686 650 568 603 686 b 78 329 122 686 78 553 b 381 -18 78 100 131 -18 b 590 0 449 -18 524 -14 b 640 61 629 8 640 22 b 600 150 640 88 639 150 b 551 140 583 150 568 144 b 382 118 496 128 439 118 b 253 257 276 118 251 156 l 253 276 l 592 276 b 650 361 654 276 650 307 z m 481 399 l 253 399 b 374 547 253 499 260 547 b 481 425 468 547 481 511 z "},"è":{"ha":728,"x_min":0,"x_max":0,"o":"m 494 843 b 344 1049 494 861 365 1035 b 261 1057 328 1060 282 1057 b 172 1025 238 1057 172 1060 b 253 919 172 1003 236 939 b 349 822 276 890 313 836 b 383 815 360 818 371 815 l 440 815 b 494 843 460 815 494 817 z m 650 361 b 374 686 650 568 603 686 b 78 329 122 686 78 553 b 381 -18 78 100 131 -18 b 590 0 449 -18 524 -14 b 640 61 629 8 640 22 b 600 150 640 88 639 150 b 551 140 583 150 568 144 b 382 118 496 128 439 118 b 253 257 276 118 251 156 l 253 276 l 592 276 b 650 361 654 276 650 307 z m 481 399 l 253 399 b 374 547 253 499 260 547 b 481 425 468 547 481 511 z "},"í":{"ha":383,"x_min":0,"x_max":0,"o":"m 399 1022 b 289 1054 399 1060 311 1054 b 226 1046 275 1054 239 1054 b 76 840 206 1032 76 857 b 140 813 76 810 119 813 l 186 813 b 225 821 201 813 211 815 b 383 993 257 835 354 958 b 399 1022 390 1001 399 1011 z m 282 60 l 282 589 b 226 646 282 624 261 646 l 161 646 b 100 589 119 646 100 632 l 100 60 b 174 0 100 6 126 0 l 226 0 b 282 60 268 0 282 21 z "},"î":{"ha":383,"x_min":0,"x_max":0,"o":"m 408 833 b 399 858 408 844 404 850 l 300 994 b 190 1053 260 1050 260 1053 b 81 994 121 1053 121 1050 l -18 858 b -28 833 -24 851 -28 842 b 65 803 -28 807 50 803 b 97 807 76 803 88 803 b 147 867 118 815 136 849 b 190 925 161 886 175 906 b 233 867 206 907 219 886 b 283 807 244 850 264 814 b 315 803 293 803 304 803 b 408 833 331 803 408 807 z m 282 60 l 282 589 b 226 646 282 624 261 646 l 161 646 b 100 589 119 646 100 632 l 100 60 b 174 0 100 6 126 0 l 226 0 b 282 60 268 0 282 21 z "},"ï":{"ha":383,"x_min":0,"x_max":0,"o":"m 408 854 l 408 947 b 368 990 408 969 392 990 l 278 990 b 238 947 254 990 238 969 l 238 854 b 278 813 238 832 256 813 l 368 813 b 408 854 390 813 408 832 z m 147 854 l 147 947 b 107 990 147 969 131 990 l 17 990 b -24 947 -7 990 -24 969 l -24 854 b 17 813 -24 832 -6 813 l 107 813 b 147 854 129 813 147 832 z m 282 60 l 282 589 b 226 646 282 624 261 646 l 161 646 b 100 589 119 646 100 632 l 100 60 b 174 0 100 6 126 0 l 226 0 b 282 60 268 0 282 21 z "},"ì":{"ha":383,"x_min":0,"x_max":0,"o":"m 333 843 b 183 1049 333 861 204 1035 b 100 1057 167 1060 121 1057 b 11 1025 76 1057 11 1060 b 92 919 11 1003 75 939 b 188 822 115 889 150 836 b 222 815 199 818 210 815 l 279 815 b 333 843 299 815 333 817 z m 282 60 l 282 589 b 226 646 282 624 261 646 l 161 646 b 100 589 119 646 100 632 l 100 60 b 174 0 100 6 126 0 l 226 0 b 282 60 268 0 282 21 z "},"ñ":{"ha":768,"x_min":0,"x_max":0,"o":"m 622 953 b 583 985 622 978 606 985 b 519 979 567 985 533 989 b 467 942 501 968 492 942 b 292 983 419 942 356 983 b 157 882 226 983 185 935 b 138 825 150 868 138 842 b 161 801 138 811 146 801 b 246 811 185 801 226 797 b 300 850 264 825 275 850 b 471 807 350 850 403 807 b 608 910 539 807 582 853 b 622 953 614 922 622 939 z m 674 61 l 674 493 b 460 686 674 625 586 686 b 265 622 386 686 326 663 b 218 665 258 650 249 665 l 156 665 b 94 606 113 665 94 649 l 94 61 b 168 0 94 6 119 0 b 272 61 225 0 272 -12 l 272 464 b 443 540 324 506 375 540 b 486 519 461 540 476 536 b 496 421 497 500 496 443 l 496 61 b 569 0 496 6 521 0 b 674 61 625 0 674 -11 z "},"ó":{"ha":793,"x_min":0,"x_max":0,"o":"m 579 1022 b 469 1054 579 1060 492 1054 b 407 1046 456 1054 419 1054 b 257 840 386 1031 257 858 b 321 813 257 810 300 813 l 367 813 b 406 821 381 813 393 815 b 564 993 432 832 540 963 b 579 1022 569 1001 579 1013 z m 715 333 b 397 686 715 553 632 686 b 78 333 164 686 78 553 b 397 -18 78 115 165 -18 b 715 333 631 -18 715 114 z m 536 333 b 511 172 536 286 535 215 b 397 129 486 128 443 129 b 283 172 351 129 308 128 b 257 333 260 215 257 285 b 283 494 257 382 260 450 b 397 539 308 540 350 539 b 511 494 444 539 486 540 b 536 333 535 451 536 381 z "},"ô":{"ha":793,"x_min":0,"x_max":0,"o":"m 608 833 b 599 858 608 842 604 851 l 500 994 b 390 1053 460 1050 460 1053 b 281 994 321 1053 321 1050 l 182 858 b 172 833 176 851 172 842 b 265 803 172 807 250 803 b 297 807 276 803 288 803 b 347 867 318 815 336 849 b 390 925 361 886 375 906 b 433 867 406 906 419 886 b 483 807 444 850 464 814 b 515 803 493 803 504 803 b 608 833 531 803 608 807 z m 715 333 b 397 686 715 553 632 686 b 78 333 164 686 78 553 b 397 -18 78 115 165 -18 b 715 333 631 -18 715 114 z m 536 333 b 511 172 536 286 535 215 b 397 129 486 128 443 129 b 283 172 351 129 308 128 b 257 333 260 215 257 285 b 283 494 257 382 260 450 b 397 539 308 540 350 539 b 511 494 444 539 486 540 b 536 333 535 451 536 381 z "},"ö":{"ha":793,"x_min":0,"x_max":0,"o":"m 607 854 l 607 947 b 567 990 607 969 590 990 l 476 990 b 436 947 453 990 436 971 l 436 854 b 476 813 436 832 453 813 l 567 813 b 607 854 589 813 607 832 z m 346 854 l 346 947 b 306 990 346 969 329 990 l 215 990 b 175 947 192 990 175 971 l 175 854 b 215 813 175 832 192 813 l 306 813 b 346 854 328 813 346 832 z m 715 333 b 397 686 715 553 632 686 b 78 333 164 686 78 553 b 397 -18 78 115 165 -18 b 715 333 631 -18 715 114 z m 536 333 b 511 172 536 286 535 215 b 397 129 486 128 443 129 b 283 172 351 129 308 128 b 257 333 260 215 257 285 b 283 494 257 382 260 450 b 397 539 308 540 350 539 b 511 494 444 539 486 540 b 536 333 535 451 536 381 z "},"ò":{"ha":793,"x_min":0,"x_max":0,"o":"m 489 843 b 339 1049 489 861 360 1035 b 275 1057 325 1058 292 1057 b 167 1025 251 1057 167 1063 b 247 919 167 1003 231 939 b 343 822 272 889 306 838 b 378 815 356 817 364 815 l 435 815 b 489 843 454 815 489 815 z m 715 333 b 397 686 715 553 632 686 b 78 333 164 686 78 553 b 397 -18 78 115 165 -18 b 715 333 631 -18 715 114 z m 536 333 b 511 172 536 286 535 215 b 397 129 486 128 443 129 b 283 172 351 129 308 128 b 257 333 260 215 257 285 b 283 494 257 382 260 450 b 397 539 308 540 350 539 b 511 494 444 539 486 540 b 536 333 535 451 536 381 z "},"õ":{"ha":793,"x_min":0,"x_max":0,"o":"m 626 953 b 588 985 626 978 610 985 b 524 979 571 985 538 989 b 471 942 506 967 496 942 b 296 983 424 942 360 983 b 161 882 231 983 190 935 b 142 825 153 868 142 842 b 165 801 142 811 150 801 b 250 811 189 801 231 797 b 304 850 268 825 279 850 b 475 807 354 850 408 807 b 613 910 543 807 585 853 b 626 953 618 922 626 939 z m 715 333 b 397 686 715 553 632 686 b 78 333 164 686 78 553 b 397 -18 78 115 165 -18 b 715 333 631 -18 715 114 z m 536 333 b 511 172 536 286 535 215 b 397 129 486 128 443 129 b 283 172 351 129 308 128 b 257 333 260 215 257 285 b 283 494 257 382 260 450 b 397 539 308 540 350 539 b 511 494 444 539 486 540 b 536 333 535 451 536 381 z "},"š":{"ha":693,"x_min":0,"x_max":0,"o":"m 588 1033 b 494 1064 588 1061 510 1064 b 463 1060 483 1064 472 1063 b 413 1000 442 1053 424 1017 b 369 942 399 981 383 961 b 326 1000 356 961 340 981 b 276 1060 315 1017 296 1053 b 244 1064 267 1063 256 1064 b 151 1033 229 1064 151 1061 b 161 1008 151 1024 156 1015 l 260 872 b 369 814 299 818 301 814 b 479 872 438 814 440 818 l 578 1008 b 588 1033 583 1015 588 1024 z m 631 197 b 471 392 631 318 579 356 b 296 456 442 401 310 438 b 289 483 289 465 289 472 b 369 538 289 544 317 538 b 481 532 407 538 443 536 b 553 526 504 531 529 526 b 604 613 607 526 604 572 b 535 681 604 667 585 676 b 432 683 500 683 467 683 b 117 472 261 683 117 686 b 215 315 117 392 143 351 b 294 283 240 303 268 293 b 450 228 317 275 439 242 b 458 182 460 217 458 196 b 389 131 458 131 435 131 b 244 138 340 131 292 133 b 172 146 221 140 196 146 b 132 82 135 146 131 113 l 132 57 b 171 -7 132 17 129 -1 b 369 -17 236 -15 304 -17 b 631 197 542 -17 631 8 z "},"ú":{"ha":768,"x_min":0,"x_max":0,"o":"m 594 1018 b 485 1050 594 1056 507 1050 b 422 1042 471 1050 435 1050 b 272 836 400 1026 272 856 b 328 808 272 807 307 808 l 382 808 b 421 817 397 808 407 810 b 579 989 454 832 549 953 b 594 1018 586 997 594 1007 z m 668 60 l 668 604 b 596 665 668 658 644 665 b 490 604 540 665 490 678 l 490 204 b 319 128 438 164 389 128 b 267 246 257 128 267 203 l 267 604 b 194 665 267 658 243 665 b 89 604 139 665 89 678 l 89 175 b 303 -19 89 42 175 -19 b 499 46 378 -19 436 6 b 546 0 504 19 517 0 l 608 0 b 668 60 651 0 668 17 z "},"û":{"ha":768,"x_min":0,"x_max":0,"o":"m 592 833 b 582 858 592 842 588 851 l 483 994 b 374 1053 443 1050 443 1053 b 264 994 304 1053 304 1050 l 165 858 b 156 833 160 851 156 842 b 249 803 156 807 233 803 b 281 807 260 803 271 803 b 331 867 300 814 319 850 b 374 925 344 886 358 907 b 417 867 389 906 403 886 b 467 807 428 849 446 815 b 499 803 476 803 488 803 b 592 833 514 803 592 807 z m 668 60 l 668 604 b 596 665 668 658 644 665 b 490 604 540 665 490 678 l 490 204 b 319 128 438 164 389 128 b 267 246 257 128 267 203 l 267 604 b 194 665 267 658 243 665 b 89 604 139 665 89 678 l 89 175 b 303 -19 89 42 175 -19 b 499 46 378 -19 436 6 b 546 0 504 19 517 0 l 608 0 b 668 60 651 0 668 17 z "},"ü":{"ha":768,"x_min":0,"x_max":0,"o":"m 596 854 l 596 947 b 556 990 596 969 579 990 l 465 990 b 425 947 442 990 425 971 l 425 854 b 465 813 425 832 442 813 l 556 813 b 596 854 578 813 596 832 z m 335 854 l 335 947 b 294 990 335 969 318 990 l 204 990 b 164 947 181 990 164 971 l 164 854 b 204 813 164 832 181 813 l 294 813 b 335 854 317 813 335 832 z m 668 60 l 668 604 b 596 665 668 658 644 665 b 490 604 540 665 490 678 l 490 204 b 319 128 438 164 389 128 b 267 246 257 128 267 203 l 267 604 b 194 665 267 658 243 665 b 89 604 139 665 89 678 l 89 175 b 303 -19 89 42 175 -19 b 499 46 378 -19 436 6 b 546 0 504 19 517 0 l 608 0 b 668 60 651 0 668 17 z "},"ù":{"ha":768,"x_min":0,"x_max":0,"o":"m 494 840 b 344 1046 494 858 365 1032 b 261 1054 328 1057 282 1054 b 172 1022 238 1054 172 1057 b 253 917 172 1000 236 936 b 349 819 278 886 311 835 b 383 813 361 815 371 813 l 440 813 b 494 840 460 813 494 814 z m 668 60 l 668 604 b 596 665 668 658 644 665 b 490 604 540 665 490 678 l 490 204 b 319 128 438 164 389 128 b 267 246 257 128 267 203 l 267 604 b 194 665 267 658 243 665 b 89 604 139 665 89 678 l 89 175 b 303 -19 89 42 175 -19 b 499 46 378 -19 436 6 b 546 0 504 19 517 0 l 608 0 b 668 60 651 0 668 17 z "},"ý":{"ha":732,"x_min":0,"x_max":0,"o":"m 604 1028 b 494 1060 604 1065 517 1060 b 432 1051 481 1060 444 1060 b 282 846 410 1036 282 865 b 338 818 282 817 317 818 l 392 818 b 431 826 407 818 417 819 b 589 999 464 842 558 963 b 604 1028 596 1007 604 1017 z m 690 625 b 643 665 690 653 668 665 b 507 611 581 665 529 681 l 389 233 l 264 626 b 186 665 251 667 224 665 l 124 665 b 75 628 103 665 75 651 b 81 606 75 619 78 613 l 308 29 l 204 -217 b 194 -250 200 -228 194 -239 b 243 -286 194 -279 218 -286 l 313 -286 b 381 -244 350 -286 367 -282 l 682 593 b 690 625 686 603 690 614 z "},"ÿ":{"ha":732,"x_min":0,"x_max":0,"o":"m 589 854 l 589 947 b 549 990 589 969 572 990 l 458 990 b 418 947 435 990 418 969 l 418 854 b 458 813 418 832 436 813 l 549 813 b 589 854 571 813 589 832 z m 328 854 l 328 947 b 288 990 328 969 311 990 l 197 990 b 157 947 174 990 157 969 l 157 854 b 197 813 157 832 175 813 l 288 813 b 328 854 310 813 328 832 z m 667 625 b 619 665 667 653 644 665 b 483 611 557 665 506 681 l 365 233 l 240 626 b 163 665 228 667 200 665 l 100 665 b 51 628 79 665 51 651 b 57 606 51 619 54 614 l 285 29 l 181 -217 b 171 -250 176 -228 171 -239 b 219 -286 171 -279 194 -286 l 289 -286 b 357 -244 326 -286 343 -282 l 658 593 b 667 625 663 603 667 614 z "},"ž":{"ha":686,"x_min":0,"x_max":0,"o":"m 614 1033 b 521 1064 614 1061 536 1064 b 489 1060 510 1064 499 1063 b 439 1000 468 1053 450 1017 b 396 942 425 981 410 961 b 353 1000 382 961 367 981 b 303 1060 342 1017 322 1053 b 271 1064 293 1063 282 1064 b 178 1033 256 1064 178 1061 b 188 1008 178 1024 182 1015 l 286 872 b 396 814 325 818 328 814 b 506 872 464 814 467 818 l 604 1008 b 614 1033 610 1015 614 1024 z m 664 58 b 604 151 664 107 669 151 b 349 140 519 151 433 146 l 638 532 b 654 579 647 546 654 563 b 607 665 654 619 663 665 l 201 665 b 142 607 163 665 142 647 b 201 514 142 558 136 514 b 432 526 278 514 356 521 l 146 135 b 122 74 133 117 122 96 b 176 0 122 33 126 0 l 604 0 b 664 58 643 0 664 18 z "}," ":{"ha":313,"x_min":0,"x_max":0,"o":""},"­":{"ha":646,"x_min":0,"x_max":0,"o":"m 579 354 l 579 408 b 515 446 579 443 542 446 l 128 446 b 67 408 104 446 67 439 l 67 344 b 128 303 67 306 96 303 l 515 303 b 579 354 558 303 579 307 z "},"ˉ":{"ha":404,"x_min":0,"x_max":0,"o":"m 404 842 b 346 904 404 885 392 904 l 57 904 b 0 850 24 904 0 883 l 0 829 b 57 771 0 788 14 771 l 346 771 b 404 842 400 771 404 793 z "},"Ω":{"ha":1060,"x_min":0,"x_max":0,"o":"m 990 0 l 990 149 l 763 149 b 993 560 885 229 993 363 b 533 989 993 799 839 989 b 65 556 254 989 65 807 b 290 149 65 338 190 217 l 67 149 l 67 0 l 444 0 l 444 149 b 261 517 364 217 261 329 b 533 829 261 706 376 829 b 794 522 703 829 794 696 b 614 149 794 331 696 221 l 614 0 z "},"μ":{"ha":768,"x_min":0,"x_max":0,"o":"m 671 60 l 671 604 b 599 665 671 658 647 665 b 493 604 542 665 493 676 l 493 204 b 322 128 439 164 392 128 b 269 146 303 128 285 135 l 269 604 b 197 665 269 658 246 665 b 92 604 140 665 92 676 l 92 -225 b 153 -290 92 -271 106 -290 l 213 -290 b 269 -228 258 -290 269 -271 l 269 -14 b 314 -19 283 -18 299 -19 b 501 46 396 -19 436 0 b 549 0 507 19 519 0 l 611 0 b 671 60 654 0 671 17 z "},"π":{"ha":1025,"x_min":0,"x_max":0,"o":"m 932 133 b 883 121 919 126 903 121 b 808 232 826 121 808 165 l 808 561 l 956 561 l 956 694 l 293 694 b 61 643 188 694 103 668 b 111 526 74 613 97 557 b 250 561 146 546 210 561 l 250 221 b 221 0 250 138 240 58 l 407 0 b 435 207 425 50 435 111 l 435 561 l 624 561 l 624 207 b 829 -12 624 86 679 -12 b 964 17 889 -12 932 -1 z "},"€":{"ha":785,"x_min":0,"x_max":0,"o":"m 735 38 l 735 83 b 682 150 735 126 731 150 b 532 143 632 150 582 143 b 296 290 407 143 321 146 l 482 290 b 538 342 517 290 538 306 b 479 419 538 385 533 419 l 286 419 l 286 451 l 286 493 l 510 493 b 565 544 544 493 565 508 b 507 622 565 588 561 622 l 293 622 b 371 757 300 676 317 733 b 532 776 407 774 490 776 b 682 769 582 776 632 769 b 735 836 731 769 735 793 l 735 882 b 663 931 735 925 697 928 b 504 938 610 935 557 938 b 114 622 264 938 147 874 b 1 567 68 622 1 632 l 1 546 b 104 493 1 482 60 493 b 104 419 104 468 104 444 b 1 364 60 419 1 426 l 1 343 b 114 290 1 276 67 290 b 504 -18 147 47 276 -18 b 663 -11 557 -18 610 -15 b 735 38 697 -8 735 -6 z "},"ℓ":{"ha":739,"x_min":0,"x_max":0,"o":"m 643 68 b 590 164 626 100 608 132 b 478 106 567 139 525 106 b 390 238 425 106 390 140 l 390 431 b 439 486 401 443 424 469 b 608 840 539 597 608 706 b 443 1011 608 918 564 1011 b 225 718 304 1011 225 900 l 225 440 b 94 314 182 397 138 357 b 146 232 111 286 129 260 b 225 308 172 257 199 282 l 225 215 b 283 33 225 150 243 75 b 429 -22 319 -3 364 -22 b 643 68 521 -22 599 28 z m 503 817 b 417 601 503 754 469 671 b 390 568 410 592 397 578 l 390 753 b 456 883 390 836 413 883 b 503 817 488 883 503 856 z "},"Ω":{"ha":1060,"x_min":0,"x_max":0,"o":"m 990 0 l 990 149 l 763 149 b 993 560 885 229 993 363 b 533 989 993 799 839 989 b 65 556 254 989 65 807 b 290 149 65 338 190 217 l 67 149 l 67 0 l 444 0 l 444 149 b 261 517 364 217 261 329 b 533 829 261 706 376 829 b 794 522 703 829 794 696 b 614 149 794 331 696 221 l 614 0 z "},"℮":{"ha":961,"x_min":0,"x_max":0,"o":"m 897 424 b 479 865 892 667 740 865 b 64 425 221 865 64 668 b 476 -17 64 182 224 -17 b 842 199 657 -17 757 69 b 790 229 824 208 807 219 b 476 36 719 115 629 36 b 244 132 385 36 307 69 l 244 424 z m 711 478 l 244 478 l 244 718 b 478 813 306 781 386 813 b 711 717 567 813 651 775 z "},"∂":{"ha":872,"x_min":0,"x_max":0,"o":"m 808 640 b 474 1015 808 869 685 1015 b 260 958 383 1015 303 989 b 299 839 272 918 285 879 b 443 879 339 864 393 879 b 631 664 564 879 631 796 b 626 592 631 636 629 615 l 624 592 b 431 683 594 640 525 683 b 64 268 260 683 64 547 b 360 -15 64 103 183 -15 b 774 381 569 -15 710 158 b 808 640 796 464 808 551 z m 604 458 b 365 122 571 278 483 122 b 247 261 292 122 247 178 b 467 558 247 428 350 558 b 604 458 542 558 586 515 z "},"∆":{"ha":936,"x_min":0,"x_max":0,"o":"m 918 0 l 918 78 b 592 972 810 376 700 674 l 346 972 b 17 78 236 674 126 376 l 17 0 z m 699 150 l 225 150 b 436 743 294 347 367 544 b 458 826 449 778 456 811 l 464 826 b 488 739 468 810 475 776 b 699 150 558 543 628 346 z "},"∏":{"ha":1092,"x_min":0,"x_max":0,"o":"m 981 -319 l 981 972 l 111 972 l 111 -319 l 299 -319 l 299 813 l 794 813 l 794 -319 z "},"∑":{"ha":954,"x_min":0,"x_max":0,"o":"m 907 -319 l 907 -171 l 290 -171 b 692 336 424 -1 558 168 b 314 824 565 499 440 661 l 876 824 l 876 972 l 72 972 l 72 867 b 490 333 213 689 351 510 b 47 -222 343 147 194 -36 l 47 -319 z "},"∕":{"ha":240,"x_min":0,"x_max":0,"o":"m 451 944 b 389 1003 451 972 407 992 b 360 1014 381 1008 371 1014 b 319 985 342 1014 328 1000 l -196 51 b -211 10 -203 40 -211 24 b -181 -25 -211 -8 -193 -17 b -117 -57 -165 -35 -136 -57 b -75 -26 -97 -57 -83 -42 l 439 907 b 451 944 446 918 451 931 z "},"∙":{"ha":403,"x_min":0,"x_max":0,"o":"m 201 335 b 222 344 208 335 217 339 l 318 440 b 328 464 324 446 328 454 b 318 486 328 472 324 481 l 222 582 b 200 592 217 588 208 592 b 179 582 193 592 185 588 l 83 486 b 74 464 78 481 74 472 b 83 440 74 454 78 446 l 179 344 b 201 335 185 339 193 335 z "},"√":{"ha":811,"x_min":0,"x_max":0,"o":"m 783 1013 l 660 1013 b 419 165 581 731 500 447 b 236 588 358 306 297 446 b 28 454 167 543 97 497 b 79 364 44 424 63 394 b 163 417 107 382 135 399 b 354 -17 226 272 290 128 l 488 -17 b 783 1013 586 326 685 669 z "},"∞":{"ha":1197,"x_min":0,"x_max":0,"o":"m 1131 408 b 868 658 1131 556 1022 658 b 600 503 742 658 649 574 l 597 503 b 325 658 535 592 443 658 b 67 404 182 658 67 561 b 328 151 67 249 179 151 b 599 306 442 151 536 219 l 601 306 b 872 151 664 211 763 151 b 1131 408 1026 151 1131 261 z m 992 406 b 861 274 992 338 950 274 b 668 406 783 274 717 326 b 858 535 719 482 779 535 b 992 406 950 535 992 475 z m 529 406 b 339 274 482 332 415 274 b 206 404 260 274 206 331 b 336 535 206 476 253 535 b 529 406 411 535 481 481 z "},"∫":{"ha":735,"x_min":0,"x_max":0,"o":"m 629 889 b 667 1017 642 932 654 974 b 533 1042 643 1029 585 1042 b 275 758 360 1042 275 933 l 275 -67 b 171 -189 275 -147 238 -189 b 103 -176 144 -189 119 -183 b 68 -307 92 -219 81 -262 b 200 -328 96 -319 156 -328 b 458 -47 369 -328 458 -222 l 458 779 b 563 903 458 861 497 903 b 629 889 590 903 617 894 z "},"≈":{"ha":771,"x_min":0,"x_max":0,"o":"m 739 588 l 639 704 b 524 611 614 663 578 611 b 393 657 481 611 443 628 b 240 699 347 683 297 699 b 31 569 139 699 82 642 l 132 453 b 246 546 153 489 189 546 b 374 501 292 546 335 526 b 529 458 425 471 481 458 b 739 588 622 458 682 504 z m 739 260 l 639 376 b 524 283 614 335 578 283 b 393 329 481 283 443 300 b 240 371 347 356 297 371 b 31 242 139 371 82 314 l 132 125 b 246 218 153 161 189 218 b 374 174 292 218 335 199 b 529 131 425 143 481 131 b 739 260 622 131 682 176 z "},"≠":{"ha":697,"x_min":0,"x_max":0,"o":"m 631 179 l 631 303 l 399 303 l 451 419 l 631 419 l 631 544 l 500 544 l 582 713 l 428 713 l 346 544 l 67 544 l 67 419 l 297 419 l 243 303 l 67 303 l 67 179 l 197 179 l 131 32 l 286 32 l 351 179 z "},"≤":{"ha":763,"x_min":0,"x_max":0,"o":"m 785 75 l 785 242 l 242 453 l 785 665 l 785 829 l -25 510 l -25 396 z m 788 -153 l 788 -15 l -25 -15 l -25 -153 z "},"≥":{"ha":763,"x_min":0,"x_max":0,"o":"m 786 396 l 786 510 l -22 829 l -22 665 l 521 453 l -22 242 l -22 75 z m 774 -153 l 774 -15 l -24 -15 l -24 -153 z "},"◊":{"ha":857,"x_min":0,"x_max":0,"o":"m 781 486 b 469 972 676 649 574 810 l 385 972 b 75 485 282 810 178 647 b 385 0 178 324 282 161 l 469 0 b 781 486 574 163 676 324 z m 643 486 b 428 146 571 372 499 260 b 211 486 356 260 283 372 b 428 825 283 599 356 713 b 643 486 499 713 571 599 z "}}}
